<?xml version="1.0" encoding="UTF-8"?><svg id="Layer_1" xmlns="http://www.w3.org/2000/svg" xmlns:xlink="http://www.w3.org/1999/xlink" viewBox="0 0 105.02 75.36"><defs><style>.cls-1{fill:none;}.cls-2{clip-path:url(#clippath);}</style><clipPath id="clippath"><rect class="cls-1" width="105.02" height="75.36"/></clipPath></defs><g class="cls-2"><path d="M10.21,4.1c-.03-.36-.1-.72-.15-1.08-.03-.2-.1-.38-.25-.52-.23-.26-.65-.2-.78.13-.06.16-.1.33-.11.49-.2,1.63-.41,3.27-.59,4.9-.21,1.88-.42,3.76-.77,5.6-.05.24-.08.51-.21.85-.11-.34-.08-.57-.08-.82,0-1.42.02-2.86.03-4.28.02-1.5-.05-3.01-.16-4.51-.03-.49-.1-.96-.16-1.44-.03-.25-.07-.47-.21-.69-.2-.31-.6-.29-.75.03-.08.18-.13.36-.16.56-.2,1.37-.43,2.73-.56,4.1-.26,2.5-.44,5.02-.77,7.52-.11.82-.24,1.63-.42,2.43-.03.13-.03.29-.21.34-.11-.15-.07-.33-.07-.47-.05-2.16-.1-4.31-.15-6.47-.05-1.9-.1-3.77-.15-5.67-.02-.44-.07-.87-.16-1.29-.05-.21-.11-.42-.26-.59-.23-.26-.62-.23-.82.05-.08.11-.15.26-.18.39-.11.34-.23.69-.33,1.04-.49,1.8-.77,3.64-1.03,5.49-.23,1.65-.38,3.32-.49,4.98-.13,1.91-.2,3.82-.2,5.73.02,1.26.08,2.52.38,3.76.2.8.52,1.55,1.01,2.24.47.65,1,1.26,1.65,1.73.23.18.36.36.38.65.03.67.13,1.36.11,2.03-.02,1.24,0,2.47-.02,3.71-.03,2.01-.13,4.02-.29,6.03-.13,1.72-.26,3.43-.39,5.15-.11,1.4-.2,2.81-.33,4.2-.23,2.32-.39,4.64-.41,6.96,0,.56-.02,1.11-.05,1.67-.13,2.52-.11,5.03.07,7.55.08,1.16.16,2.32.42,3.46.13.57.29,1.13.59,1.63.26.47.62.87,1.08,1.16.87.56,1.88.21,2.35-.39.26-.34.47-.74.65-1.13.51-1.14.78-2.34,1.01-3.56.31-1.57.34-3.17.41-4.77.11-2.42-.02-4.84-.18-7.25-.16-2.73-.36-5.46-.56-8.18-.05-.72-.11-1.45-.18-2.17-.16-1.73-.36-3.46-.49-5.21-.2-2.56-.23-5.13-.2-7.69.02-.9.15-1.78.28-2.68.03-.24.11-.47.28-.65.39-.44.74-.9,1.16-1.31.82-.8,1.27-1.75,1.37-2.88.21-2.24.31-4.49.38-6.75.08-2.7-.03-5.37-.1-8.07,0-2.03-.08-4.04-.25-6.04ZM9.46,18.15c-.03,1.41-.13,2.81-.2,4.22-.03.64-.05,1.26-.08,1.9-.02.29-.02.59-.03.87-.08,1-.54,1.8-1.32,2.4-.02.02-.03.03-.07.05-.98.59-1.39,1.5-1.42,2.61-.03,1.16-.08,2.32-.1,3.48-.02,1.29.03,2.56.03,3.86,0,1.45.11,2.91.26,4.35.15,1.55.15,3.1.2,4.64.11,3.87.21,7.74.33,11.63.08,2.35.2,4.69.28,7.04.07,1.54-.23,3.04-.52,4.54-.08.46-.34.85-.67,1.19-.15.16-.33.28-.54.36-.49.16-.77.07-1.01-.41-.23-.42-.38-.9-.49-1.37-.21-.87-.33-1.76-.41-2.65-.23-2.32-.2-4.64-.1-6.98.05-1.31.13-2.61.23-3.92.1-1.4.25-2.79.38-4.2.11-1.4.23-2.79.34-4.2.21-2.76.26-5.52.36-8.28.08-2.35.05-4.7.15-7.04.03-.82.05-1.65-.03-2.47-.05-.46-.18-.82-.59-1.09-.51-.36-.98-.78-1.42-1.24-1.24-1.29-1.81-2.83-1.94-4.57-.16-1.9-.15-3.79-.08-5.67.07-1.81.16-3.63.36-5.44.23-2.04.49-4.08,1.01-6.09.02-.1.07-.18.1-.26,0-.02.03-.02.07-.02.02,0,.05.02.05.02.02.06.03.15.03.21.02.65.02,1.31.03,1.96.02,3.17.18,6.34.33,9.51.02.39.08.77.15,1.14.03.16.08.33.16.47.1.21.23.38.49.36.23-.02.34-.16.43-.36.08-.18.15-.36.18-.56.2-.8.36-1.6.46-2.42.31-2.5.6-5,.9-7.5.08-.67.18-1.34.28-2.01.03-.21.07-.43.26-.7.03,1.09.1,2.09.1,3.07,0,2.4-.03,4.8-.07,7.19v2.11c0,.21.02.44.11.64.13.25.42.26.59.03.15-.2.18-.44.23-.69.21-1,.41-1.99.6-2.99.46-2.34.75-4.69,1.06-7.04.07-.49.08-1.01.24-1.49.2,0,.13.13.13.2.18,3.92.29,7.76.2,11.62ZM104.82,11.75c-.1-2.68-.13-5.36-.2-8.05-.02-.39-.03-.78-.13-1.18-.03-.15-.08-.31-.18-.46-.21-.33-.69-.34-.91-.02-.11.15-.18.33-.24.49-1.32,2.91-2.16,5.93-2.74,9.03-.31,1.67-.57,3.33-.85,5-.21,1.31-.42,2.6-.62,3.91-.23,1.54-.36,3.07-.49,4.62-.13,1.47-.21,2.96-.1,4.43.18,2.27.74,4.43,2.09,6.34.13.2.23.39.29.62.33,1.13.44,2.27.33,3.43-.11,1.13-.28,2.26-.46,3.37-.25,1.6-.64,3.19-1.05,4.75-.72,2.76-1.39,5.54-1.57,8.38-.06,1.11-.18,2.22-.2,3.32-.05,2.3.24,4.57.75,6.81.29,1.34.75,2.63,1.39,3.86.62,1.19,1.57,2.11,2.69,2.86.1.06.21.13.31.16.47.18.87,0,1.03-.47.03-.11.07-.23.07-.34.05-.65.1-1.29.13-1.94.05-1.49.08-2.96.08-4.44.03-4.05.13-8.09.2-12.14.1-5.6.1-11.19.15-17.77-.03-3.77.11-8.54.21-13.31.08-3.71.15-7.47.02-11.24ZM103.78,23.87c-.18,6.01-.25,12.02-.25,18.04,0,4.54-.07,9.07-.15,13.61-.07,3.54-.15,7.07-.18,10.62-.02,1.37-.05,2.73-.07,4.1,0,.11-.02.23-.03.34,0,.02-.1.05-.11.03-.1-.1-.2-.2-.28-.31-1.96-2.65-3.1-5.57-3.35-8.82-.18-2.22-.15-4.44.07-6.65.2-2.03.67-4.02,1.22-5.98.56-1.94,1.08-3.89,1.44-5.88.23-1.27.41-2.56.38-3.86-.03-.82-.15-1.62-.42-2.39-.11-.31-.23-.6-.47-.85-.07-.07-.13-.15-.16-.23-.51-1-1.11-1.94-1.52-2.99-.28-.7-.39-1.42-.47-2.17-.2-1.8-.1-3.61.1-5.41.11-1.03.18-2.07.31-3.1.15-1.19.33-2.39.49-3.58.23-1.5.46-3.02.69-4.53.39-2.58.95-5.15,1.75-7.64.16-.52.38-1.05.57-1.57.03-.08.07-.18.2-.16.1.08.07.21.07.31.1,3.33.2,6.67.28,9.98.07,3.02,0,6.06-.08,9.08ZM95.58,29.08c-.21-.87-.47-1.73-.43-2.65.02-.26-.15-.46-.33-.62-.1-.1-.21-.15-.33-.08-.39.18-.77.05-1.14-.05-2.03-.51-4-1.14-5.93-1.96-.8-.34-1.57-.75-2.34-1.16-.21-.11-.34-.26-.39-.49-.2-.69-.49-1.32-.82-1.93-.9-1.63-1.85-3.23-3.07-4.67-.24-.29-.52-.57-.74-.93.21-.08.39-.15.57-.2.46-.16.93-.29,1.37-.49.75-.34,1-.83.87-1.65-.02-.06-.03-.15-.05-.21-.28-1.67-.87-3.22-1.52-4.75-.49-1.13-.96-2.27-1.45-3.4-.23-.51-.46-1.01-.72-1.5-.21-.41-.52-.75-.9-1.03-.51-.38-1.06-.46-1.65-.2-.25.1-.47.23-.7.38-.49.31-.91.7-1.34,1.11-1.13,1.09-2.16,2.29-3.09,3.56-.15.21-.28.46-.51.6-.07-.03-.13-.07-.18-.11-1.47-1.45-3.22-2.48-5.1-3.3C60.57,1.08,55.26,0,49.71.03c-1.34,0-2.66.08-3.97.33-.69.13-1.37.31-2.06.42-6.17,1.09-11.63,3.71-16.42,7.76-3.56,3.02-6.4,6.65-8.69,10.72-4.08,7.27-5.64,15.05-4.57,23.31.46,3.56,1.42,6.96,2.86,10.24,5.59,12.81,18.26,22.12,33.62,22.48,2.94.07,5.86-.21,8.72-.87,9.08-2.07,16.4-6.85,21.99-14.3,1.62-2.16,2.96-4.49,4.08-6.94.38-.82.26-.83,1.03-.31.8.54,1.63,1.03,2.5,1.49.34.18.7.33,1.09.36.39.03.7-.08.98-.38.77-.82,1.57-1.57,2.52-2.19.41-.26.77-.59,1.06-.98.41-.54.31-1.13-.24-1.5-.15-.1-.29-.16-.46-.23-.7-.26-1.37-.6-2.04-.93-1.55-.77-2.99-1.68-4.41-2.66-2.4-1.67-4.52-3.64-6.47-5.83-1.03-1.16-1.98-2.39-2.73-3.76-.78-1.44-1.32-2.96-1.73-4.54-.54-2.14-1.11-4.26-1.67-6.39-.44-1.7-1-3.35-1.86-4.87-.05-.08-.11-.16-.02-.26.02,0,.05,0,.07.02.11.08.25.16.36.26,3.87,2.99,7.87,5.82,12.33,7.89.15.07.23.16.26.33.31,1.27.7,2.52.95,3.81.36,1.86.65,3.73.65,5.62,0,1.65,0,3.3-.21,4.93-.02.2-.08.38-.02.57.05.18.16.29.34.34.2.05.41-.03.51-.21.07-.13.11-.26.16-.41.16-.56.29-1.13.38-1.7.13-.83.15-1.68.2-2.53.15-2.17-.03-4.31-.46-6.44-.21-1.09-.47-2.17-.82-3.23-.03-.08-.1-.18-.02-.26.08-.1.18-.05.26-.02,1.03.29,2.06.56,3.07.87,1.44.46,2.94.56,4.43.8.49.08.74-.21.6-.7-.08-.33-.21-.69-.29-1.06ZM82.44,20.34c.13.23.31.42.38.83-.75-.46-1.36-.9-1.94-1.36-.2-.15-.38-.31-.56-.47-1.52-1.37-3.23-2.45-5.13-3.23-.15-.07-.33-.1-.44-.25.05-.13.2-.11.29-.13,1.03-.2,2.04-.39,3.04-.67.29-.08.49-.02.69.25,1.26,1.65,2.6,3.23,3.68,5.03ZM74.86,3.76c.36-.36.74-.7,1.11-1.05.25-.23.54-.41.85-.56.29-.13.57-.11.8.13.16.18.34.34.47.56.18.26.33.54.46.82.65,1.36,1.31,2.69,1.94,4.05.64,1.39,1.19,2.81,1.44,4.33.11.7.07.83-.62,1.08-1.86.62-3.71,1.24-5.64,1.63-1.16.23-2.34.39-3.51.52-.21.03-.44.03-.65.03-.26,0-.33-.05-.33-.28.02-.82-.18-1.58-.47-2.3.16-.2.36-.23.54-.29,1.34-.54,2.55-1.27,3.59-2.29.54-.52,1.06-1.06,1.57-1.62.85-.9,1.36-1.99,1.8-3.14.07-.15.08-.33.08-.49.02-.59-.36-.96-.95-.95-.28,0-.52.07-.77.18-.46.21-.9.47-1.29.82-.49.43-1,.85-1.45,1.32-1.4,1.47-2.68,3.05-3.68,4.84-.07.1-.11.21-.2.31-.05.07-.13.07-.2.02-.05-.05-.13-.11-.11-.16.03-.15.08-.28.15-.41,1.26-2.66,2.99-5.02,5.06-7.11ZM71.29,10.65c.93-1.18,1.85-2.37,2.87-3.46.51-.56,1.06-1.04,1.67-1.52.23-.18.47-.33.72-.47.05-.03.15,0,.2.03s.07.13.05.2c0,.06-.03.13-.07.21-.23.64-.56,1.24-1.01,1.75-1.19,1.34-2.5,2.56-4.12,3.4-.11.07-.23.2-.39.11-.05-.1.03-.16.08-.25ZM66.66,55.42c-.1,0-.21-.05-.28-.02-.59.28-1.24.23-1.86.31-1.44.2-2.89.33-4.33.51-1.67.2-3.32.41-4.97.64-1.68.21-3.37.44-5.03.69-1.22.16-2.45.34-3.66.52-.11.02-.24.03-.36.05-.18.02-.28-.05-.29-.23-.07-.47-.11-.96-.16-1.44-.23-2.27-.46-4.53-.69-6.8-.21-2.09-.42-4.2-.64-6.29-.23-2.17-.44-4.33-.65-6.5-.18-1.76-.33-3.53-.49-5.28-.16-1.73-.34-3.46-.52-5.21-.15-1.44-.31-2.89-.47-4.33-.16-1.44-.59-6.26-.65-7.07-.02-.36,0-.39.39-.46.62-.08,1.24-.2,1.88-.23,2.01-.15,4-.31,6.01-.38,1.8-.05,3.58-.21,5.36-.33.62-.03,1.26-.08,1.88-.1,2.11-.1,4.21-.18,6.32-.26.31-.02.62,0,.96,0-.02.15,0,.2-.02.23-.13.34-.26.67-.39,1.01-.36.13-.72,0-1.08,0-1.16.03-2.32.13-3.48.28-1.93.25-3.84.49-5.77.65-.6.05-1.21.16-1.78.33-.26.07-.51.16-.74.29-.59.31-.9.8-.93,1.45-.02.31,0,.62.08.93.13.54.36,1.06.6,1.55,1.01,2.06,2.3,3.92,3.72,5.7.56.69,1.21,1.26,1.94,1.73.21.13.42.25.64.36.67.36,1.34.38,1.99-.05.28-.18.59-.34.87-.54,2.25-1.59,4.15-3.5,5.57-5.85.41-.69.78-1.39,1.19-2.08.03-.07.1-.13.18-.1.05.02.11.1.13.15.08.56.16,1.09.23,1.65.23,2.04.47,4.08.69,6.14.23,2.04.43,4.1.64,6.14.16,1.62.34,3.23.51,4.84.18,1.67.34,3.33.51,4.98.16,1.67.34,3.33.51,4.98.16,1.52.33,3.04.49,4.56.08.7.18,1.39.28,2.09.03.31-.02.38-.34.41-1.16.13-2.3.26-3.46.39-.18-.03-.34-.05-.52-.05ZM66.45,64.74c-.43.05-.87.1-1.29.16-1.88.23-3.74.46-5.62.69-1.32.16-2.65.31-3.97.49-1.6.21-3.22.43-4.82.64-1.58.21-3.17.44-4.75.65-1.58.21-3.17.39-4.74.72-.1.02-.18,0-.33,0-.08-.47-.13-.96-.18-1.44-.18-2.07-.38-4.15-.56-6.22-.16-1.88-.33-3.76-.49-5.65-.16-1.81-.34-3.61-.51-5.42-.11-1.26-.23-2.52-.34-3.76-.18-1.86-.34-3.71-.52-5.57-.11-1.26-.23-2.52-.34-3.76-.18-1.83-.34-3.66-.52-5.49-.11-1.18-.23-2.37-.33-3.55-.05-.57-.03-.59.56-.69.93-.15,1.86-.29,2.79-.46.26-.05.52-.1.78-.15.34-.05.43,0,.46.38.16,1.49.31,2.99.46,4.48.16,1.57.34,3.14.51,4.69.18,1.63.34,3.27.52,4.92.18,1.73.36,3.46.52,5.21.16,1.67.33,3.33.49,4.98.18,1.73.36,3.46.52,5.19.07.7.13,1.41.2,2.09.02.21.03.44.08.65.08.41.28.59.7.57.26,0,.54-.03.78-.1,1.4-.43,2.86-.52,4.3-.67,1.57-.16,3.12-.34,4.69-.52,1.83-.21,3.66-.43,5.49-.64,1.32-.16,2.65-.34,3.95-.51.11-.02.24-.03.36-.05.75-.07.7-.11.77.64.16,1.96.34,3.9.52,5.87.03.39.08.77.18,1.14.11.33.03.43-.33.47ZM59.82,16.52c-1.54.2-3.09.28-4.61.57-.62.11-1.23.31-1.81.51-.2.07-.41.18-.59.29-.62.42-.67,1.14-.11,1.68.29.28.67.39,1.06.42.86.08,1.75.08,2.61-.07,1.93-.31,3.76-.9,5.54-1.7.65-.29,1.31-.62,1.96-.93.21-.1.34-.1.44.07.41.64,1,1.05,1.6,1.39.03.2-.07.31-.13.44-.36.64-.7,1.27-1.08,1.9-.85,1.49-1.89,2.81-3.2,3.92-.57.49-1.14.96-1.73,1.44-.31.25-.64.43-.96.65-.41.28-.82.24-1.22-.02-.25-.16-.49-.33-.7-.51-.49-.39-.93-.85-1.31-1.36-1.27-1.76-2.55-3.55-3.61-5.46-.26-.47-.49-.95-.64-1.45-.07-.23-.1-.47-.11-.72-.02-.39.16-.64.52-.8.54-.23,1.11-.36,1.68-.43,2.12-.24,4.23-.54,6.34-.83,1.27-.18,2.55-.31,3.82-.46.25-.03.31.03.31.26,0,.11-.02.24-.02.36,0,.16-.1.28-.25.33-.21.07-.42.13-.64.16-.51.07-1.01.1-1.52.15-.54.07-1.09.1-1.65.18ZM60.72,17.25c-.95.56-3.12,1.19-4.87,1.41-.78.1-1.58.2-2.37.03,0-.23.16-.26.28-.31.91-.39,1.89-.57,2.87-.7,1.19-.16,2.4-.29,3.59-.44.13,0,.25.02.49.02ZM67.56,17.81c-.78-.07-1.49-.39-2.01-1.05-.26-.33-.38-.78-.38-1.29.05-1.16.46-2.17,1.36-2.94.64-.54,1.37-.77,2.22-.57.31.08.59.21.8.46.91,1.06,1.13,2.27.75,3.59-.02.05-.03.1-.05.13-.39.9-1.72,1.75-2.7,1.67ZM26.14,12.43c.03-.25.03-.54.26-.72.03.03.07.03.07.05.7,1.85,1.47,3.68,1.85,5.64.41,2.03.57,4.07.47,6.13-.02.36.05.77-.26,1.08-.33-.21-.42-.57-.6-.88-.78-1.34-1.32-2.79-1.83-4.25-.26-.78-.39-1.6-.39-2.42.03-1.57.21-3.1.44-4.62ZM28.52,31.29c.41-.54.87-1.05,1.37-1.5,1.13-1.03,2.32-1.98,3.58-2.84.1-.07.18-.16.39-.15-.46,1.93-1.45,3.4-3.14,4.38-.69.41-1.29.51-2.3.41-.07-.11.02-.2.1-.29ZM84.63,52.08c-.26.6-.51,1.21-.78,1.8-3.68,7.53-9.34,13.05-16.86,16.7-3.25,1.57-6.66,2.61-10.23,3.17-2.89.44-5.78.56-8.69.29-10.21-.9-20.16-6.01-26.74-15.11-.16-.21-.31-.44-.44-.67-2.08-3.53-3.71-7.24-4.62-11.24-.82-3.55-1.14-7.12-.91-10.75.44-6.99,2.53-13.45,6.45-19.26.93-1.39,1.96-2.7,3.09-3.94.15-.16.26-.34.47-.42.16.03.1.15.1.23-.1.93-.21,1.88-.33,2.81-.18,1.54-.03,3.04.52,4.51.47,1.27.96,2.53,1.68,3.69.28.43.54.87.87,1.26.15.16.15.33.08.54-.46,1.5-.83,3.04-1.11,4.59,0,.02-.02.05-.02.07-.03.03-.05.1-.1.1-.08.03-.13-.03-.16-.1-.39-.72-.8-1.44-1.16-2.17-.7-1.42-1.47-2.79-2.42-4.05-.72-.95-1.47-1.86-2.22-2.78-.1-.11-.2-.21-.31-.29-.23-.18-.49-.08-.57.2-.06.24-.05.47-.03.72.06.8.23,1.58.39,2.37.21,1.03.52,2.01.87,3.01.18.52.42,1.03.7,1.52.47.82,1.13,1.45,1.89,1.96.8.54,1.6,1.09,2.42,1.62.23.15.33.33.28.59-.23,1.73-.36,3.46-.41,5.21,0,.07,0,.15-.1.18-.18-.08-.23-.29-.31-.44-.75-1.27-1.6-2.48-2.61-3.56-.46-.47-.91-.93-1.4-1.37-1.18-1.05-2.4-2.04-3.45-3.22-.18-.2-.39-.38-.6-.52-.26-.18-.62,0-.64.33-.02.15,0,.29.03.44.46,2.66,1.41,5.13,2.81,7.42.95,1.54,2.21,2.68,3.86,3.41.69.29,1.37.62,2.09.82.28.07.38.25.39.52.07.96.15,1.93.23,2.89.08,1.06.23,2.12.41,3.17.02.11.07.23-.02.34-.16-.03-.21-.18-.29-.29-1.36-2.04-3.07-3.74-5.02-5.21-.31-.23-.65-.42-.96-.64-.38-.26-.77-.51-1.14-.77-.15-.1-.28-.2-.42-.26-.25-.11-.52.07-.51.33,0,.1.02.2.05.28.78,2.99,2.3,5.52,4.64,7.56.91.8,1.94,1.44,3.05,1.93.26.11.54.25.82.28.43.05.6.28.7.67.38,1.55.87,3.07,1.45,4.56.03.08.05.18.08.26-.15.13-.23-.02-.31-.07-.15-.1-.28-.2-.41-.29-1.27-1.06-2.69-1.9-4.12-2.73-1.37-.8-2.74-1.63-4.13-2.43-.16-.1-.34-.2-.52-.25-.25-.08-.49.16-.44.43.02.11.07.23.11.34.54,1.14,1.03,2.3,1.65,3.4.38.65.8,1.27,1.32,1.81,1.09,1.09,2.42,1.67,3.92,1.88,1.21.16,2.42.21,3.63.21.23,0,.36.07.47.26.24.44.49.9.75,1.32.74,1.22,1.57,2.39,2.6,3.4.28.28.57.52.87.77.1.08.2.13.31.2.15.08.28.05.39-.07s.13-.33.03-.47c-.08-.11-.2-.21-.31-.31-1.73-1.47-2.96-3.32-3.95-5.33-.03-.07-.07-.13-.08-.2-.03-.1-.02-.2.08-.24.11-.08.24-.15.38-.23.34-.2.67-.39,1.01-.57.83-.49,1.52-1.13,2.06-1.91.33-.46.64-.91.95-1.39.34-.52.62-1.09.82-1.7.41-1.24.72-2.52.74-3.84,0-.2,0-.39-.02-.59-.02-.15-.1-.28-.25-.33s-.29-.02-.39.11c-.11.13-.21.26-.31.41-.74,1.04-1.57,2.04-2.42,3.01-.6.67-1.13,1.39-1.65,2.12-.6.88-1.09,1.83-1.49,2.83-.07.18-.07.39-.29.47-.16-.2-.21-.42-.29-.65-.51-1.36-.93-2.74-1.27-4.17-.03-.11-.07-.23-.08-.36-.03-.16,0-.28.18-.34.07-.02.13-.07.2-.08,1.5-.57,2.74-1.5,3.77-2.76.65-.8,1.26-1.65,1.78-2.56.75-1.34.96-2.78.88-4.28,0-.1-.02-.2-.05-.28-.08-.28-.34-.43-.64-.34-.13.05-.28.11-.38.2-.2.15-.38.31-.56.47-1.19,1.21-2.4,2.4-3.53,3.66-.8.88-1.49,1.85-1.99,2.92-.03.08-.1.16-.15.24-.21-.03-.2-.21-.21-.33-.16-1.23-.33-2.45-.46-3.68-.1-.96-.13-1.93-.18-2.91v-.36c0-.2.07-.31.28-.36.64-.13,1.24-.39,1.86-.59,1.49-.47,2.66-1.34,3.64-2.53,1.39-1.68,2.21-3.63,2.63-5.75.02-.11.03-.25.05-.36,0-.41-.24-.62-.67-.52-.18.05-.38.11-.54.21-.57.28-1.09.64-1.57,1.03-1.86,1.54-3.56,3.2-5.11,5.05-.13.15-.25.29-.38.44-.03.05-.08.07-.13.02-.03-.03-.07-.07-.07-.11-.02-.07-.02-.15,0-.21.02-1.24.11-2.47.24-3.69.05-.52.11-1.06.2-1.58.05-.29.1-.34.36-.36.24-.03.49-.03.72-.05.95-.03,1.8-.34,2.56-.88,1.13-.8,2.03-1.78,2.52-3.12.21-.59.47-1.18.6-1.78.05-.21.08-.42.1-.64,0-.31-.25-.49-.56-.39-.21.07-.39.16-.59.28-1.31.75-2.5,1.67-3.63,2.66-.52.46-1.04.93-1.49,1.42-.16-.03-.15-.1-.13-.16.28-1.4.62-2.79,1.06-4.15.05-.13.08-.28.15-.41.05-.13.15-.2.28-.16.83.2,1.63,0,2.43-.18,1.37-.29,2.71-.74,3.97-1.37,1.13-.57,2.04-1.37,2.68-2.47.36-.6.72-1.21,1.09-1.8.16-.28.36-.56.1-.87-.23-.28-.52-.2-.8-.13-2.09.46-4.07,1.26-5.95,2.3-.85.47-1.68.96-2.48,1.5-.13-.11-.07-.21-.02-.33.43-.98.91-1.93,1.47-2.83.43-.67,1.06-1.13,1.78-1.44.95-.41,1.78-.98,2.58-1.6.59-.44,1.11-.93,1.58-1.49,1.65-1.9,3.01-3.99,3.97-6.31.13-.31.23-.64.33-.96.03-.11.03-.25.02-.36-.02-.2-.21-.34-.41-.33-.1.02-.2.05-.28.07-.54.15-1.06.36-1.55.62-1.57.86-3.1,1.8-4.49,2.94-.98.8-1.8,1.76-2.53,2.79-.8,1.13-1.24,2.4-1.42,3.77-.07.47-.11.96-.16,1.44-.03.26-.08.52-.26.75-.72.95-1.29,1.99-1.81,3.05-.03.07-.08.13-.11.18-.21-.05-.13-.23-.13-.34-.02-1.14-.1-2.27-.23-3.4-.16-1.32-.51-2.61-1-3.86-.38-.96-.78-1.93-1.16-2.89q-.2-.49.21-.87c4.04-3.68,8.64-6.37,13.95-7.76,2.94-.77,5.93-1.19,8.97-1.24,6.04-.11,11.76,1.21,17.18,3.86.91.46,1.76,1.01,2.55,1.67.54.44.44.41.2.88-.43.82-.78,1.67-1.09,2.53q-.16.46-.67.46h-.36c-.98-.05-1.83.28-2.52.93-.33.31-.67.42-1.09.44-.96.02-1.94.07-2.91.1-2.5.1-4.98.16-7.48.33-1.65.1-3.3.11-4.93.16-1.65.05-3.28.16-4.93.31-.7.07-1.4.13-2.09.21-.29.03-.57.08-.85.16-.39.11-.54.31-.51.69.2,1.83.16,3.68.36,5.51.18,1.63.31,3.28.46,4.92.03.29-.02.34-.29.39-.6.08-1.21.15-1.8.23-.87.11-1.73.21-2.6.33-.1.02-.2.03-.28.05-.34.1-.47.28-.49.62,0,.1,0,.2.02.29.16,1.78.33,3.56.49,5.36.11,1.32.23,2.65.34,3.99.18,1.96.34,3.9.52,5.87.11,1.31.23,2.61.34,3.9.18,1.96.36,3.91.52,5.87.16,1.76.33,3.53.49,5.28.18,1.91.36,3.81.54,5.72.16,1.72.33,3.43.49,5.13.02.2.02.39.07.57.07.26.23.43.51.44.41.02.83.07,1.23.03,1.49-.15,2.99-.31,4.48-.47,1.47-.16,2.94-.33,4.41-.51,1.85-.21,3.71-.44,5.55-.67,2.06-.26,4.13-.52,6.19-.78,1.29-.16,2.6-.34,3.89-.51.34-.05.67-.05,1.01-.11.47-.08.6-.29.56-.77-.03-.51-.07-1.01-.1-1.52-.07-.75-.15-1.49-.21-2.24-.07-.77-.15-1.55-.21-2.32-.05-.57-.11-1.16-.16-1.73-.02-.15-.03-.29-.03-.44,0-.21.07-.31.29-.34.36-.05.72-.1,1.08-.15.87-.11,1.73-.23,2.6-.33.82-.1.9-.18.82-1.01-.15-1.42-.29-2.84-.49-4.26-.15-1.06-.21-2.12-.33-3.19-.18-1.63-.36-3.27-.52-4.92-.16-1.57-.33-3.14-.49-4.7-.18-1.68-.36-3.37-.52-5.06-.16-1.58-.33-3.19-.49-4.77-.18-1.78-.36-3.56-.52-5.36-.08-.9-.15-1.78-.23-2.68-.02-.15-.05-.29.07-.46.16.15.2.28.25.41.98,2.91,1.89,5.85,2.6,8.86.31,1.37.57,2.74.93,4.12.96,3.72,2.58,7.14,4.85,10.24,2.16,2.94,4.56,5.67,7.29,8.09.11.1.21.2.33.29.2.1.23.28.13.51ZM27.23,51.2s-.08.05-.13.03c-.11-.03-.23-.08-.33-.15-3.15-1.63-5.42-4.08-6.78-7.37-.11-.28-.26-.56-.25-.88.15-.07.25.02.34.08.86.49,1.65,1.09,2.4,1.75.85.75,1.65,1.57,2.4,2.42,1.05,1.18,1.78,2.53,2.35,3.97.02.05.02.11-.02.15ZM25.48,30.89c-.29-.21-.59-.41-.9-.62-.96-.62-1.67-1.45-2.12-2.5-.72-1.62-1.21-3.3-1.44-5.06,0-.02.02-.05.02-.07.15-.02.2.1.28.2,1.44,1.72,2.68,3.54,3.66,5.55.31.65.67,1.29,1,1.93.16.33.33.64.49.96.07.13-.64-.15-.98-.39ZM26.33,40.89c-.13.15-.26.07-.36.02-1.01-.46-2.01-.95-2.94-1.57-.69-.46-1.27-1.03-1.75-1.72-1.34-1.9-2.3-3.97-2.89-6.21-.03-.11-.08-.23.05-.34.07.03.13.05.18.1.86.88,1.83,1.65,2.76,2.47,1.78,1.57,3.19,3.43,4.31,5.51.29.57.54,1.14.64,1.75ZM28.73,50.22c.46-1.13,1.08-2.17,1.86-3.09,1.22-1.44,2.58-2.76,3.89-4.1.07-.07.13-.15.28-.11.18.69.13,1.36-.05,2.04-.18.64-.46,1.23-.8,1.78-.57.93-1.22,1.8-2.01,2.56-.8.8-1.75,1.37-2.83,1.7-.1.03-.18.05-.28.07-.11.02-.23-.1-.23-.21-.03-.24.08-.44.16-.64ZM29.81,58.73s.02.05.02.07c-.03.03-.07.1-.1.1-1.31-.08-2.61-.07-3.9-.39-1.37-.34-2.47-1.11-3.28-2.25-.74-1.03-1.27-2.16-1.81-3.35.2-.03.28.03.36.08,1.63.98,3.28,1.96,4.92,2.96.33.2.65.43.96.65.8.59,1.58,1.19,2.39,1.78.16.1.31.23.46.36ZM30.94,58.06c.03-.15.07-.28.1-.43.33-.93.72-1.85,1.27-2.68.65-.96,1.34-1.89,2.12-2.76.65-.72,1.27-1.45,1.86-2.22.05-.08.13-.15.31-.34.02.57-.03.96-.1,1.37-.36,2.06-1.32,3.82-2.7,5.36-.74.83-1.7,1.34-2.68,1.81-.11.08-.23,0-.2-.11ZM27.54,40.32c.07-.16.13-.31.23-.46.25-.44.57-.85.9-1.22,1.5-1.73,3.15-3.35,4.9-4.84.34-.29.74-.56,1.11-.82.08-.05.18-.11.26-.03.05.05.03.13.05.18-.02.11-.03.21-.07.31-.46,1.65-1.18,3.17-2.29,4.49-.87,1.03-1.9,1.78-3.2,2.14-.56.15-1.11.34-1.67.49-.18.06-.31-.08-.23-.25ZM30.37,23.44c.39-.41.82-.77,1.31-1.03,2.12-1.18,4.3-2.22,6.62-2.92.13-.05.28-.08.43-.1.05-.02.08.02.13.02.08.1.02.18-.03.26-.26.44-.52.86-.78,1.31-.39.62-.93,1.11-1.55,1.5-1.58.98-3.32,1.57-5.16,1.85-.44.07-.87.03-1.27-.16-.05-.33.13-.52.33-.72ZM32.75,16.39c.24-1.39.85-2.61,1.73-3.71.78-.98,1.67-1.88,2.68-2.65.98-.75,1.99-1.45,3.04-2.11.08-.05.16-.11.24-.15.43-.18.78-.57,1.31-.49,0,.47-.29.87-.49,1.26-.95,1.93-2.14,3.68-3.58,5.26-1.01,1.13-2.24,1.99-3.59,2.68-.39.2-.77.41-1.13.65-.1.06-.18.16-.33.11-.07-.31.07-.59.11-.87ZM73.54,25.14c.51,1.9,1.06,3.77,1.58,5.67.26.95.52,1.91.8,2.86.6,2.06,1.55,3.97,2.89,5.65,1.9,2.39,4.04,4.51,6.48,6.31.7.51,1.41,1.03,2.11,1.55.9.67,1.86,1.22,2.81,1.8.7.42,1.4.85,2.11,1.26-.33.69-.88,1.39-2.39,3.04-.08-.03-.16-.07-.24-.11-.64-.41-1.27-.8-1.9-1.23-.41-.26-.77-.6-1.18-.85-.29-.18-.38-.51-.6-.7-.25-.2-.59-.13-.85-.38-.8-.75-1.63-1.44-2.39-2.24-2.21-2.35-4.23-4.85-5.91-7.61-1.42-2.32-2.48-4.8-3.25-7.43-.46-1.58-.77-3.2-1.14-4.8-.64-2.7-1.5-5.31-2.52-7.87-.18-.44-.42-.87-.64-1.31-.11-.21-.1-.26.1-.43.15-.11.31-.23.49-.38.72.65,1.22,1.39,1.65,2.19.82,1.63,1.52,3.27,1.98,5.02ZM93.99,29.51c-1.31-.36-2.63-.67-3.94-.98-2.47-.57-4.75-1.65-6.93-2.94-.77-.46-1.52-.95-2.25-1.45-1.89-1.31-3.77-2.63-5.6-4.02-1.08-.82-2.22-1.55-3.37-2.27-.39-.25-.8-.46-1.31-.61.13-.26.23-.42.29-.6.11-.33.36-.42.69-.44.7-.03,1.4.02,2.07.24,1.7.59,3.32,1.34,4.75,2.43.39.29.77.59,1.13.91,1.36,1.19,2.89,2.12,4.43,3.02,2.39,1.39,4.92,2.35,7.56,3.1.82.23,1.6.52,2.45.64.21.03.28.13.28.36-.02.56,0,1.11.1,1.67.03.15.05.29.07.42q.16.67-.42.51ZM66.24,35.91c.07.08.05.18,0,.28-.13.21-.34.34-.59.39-.15.03-.29.05-.43.05-.93.03-1.65.49-2.25,1.18-.05.05-.08.11-.13.18-.2.23-.39.28-.64.15-.16-.08-.33-.21-.47-.34-.13-.13-.28-.16-.46-.16-.87.07-1.75.08-2.61.18-1.67.18-3.32.42-4.97.6-1.08.11-2.17.15-3.27.2-.15,0-.29,0-.42-.05-.08-.02-.16-.1-.18-.21s.03-.2.11-.26c.18-.13.39-.18.6-.21.65-.1,1.29-.2,1.94-.26,1.76-.18,3.5-.46,5.26-.69,1.01-.13,2.03-.2,3.04-.18.1,0,.2,0,.29.02.82.07.83.08,1.4.72.49-.51,1.01-.88,1.57-1.24.42-.26.87-.41,1.37-.41.21,0,.44-.03.65-.03.05.02.13.07.16.11ZM48.79,33.1c-.26-.02-.52-.08-.78-.16-.1-.03-.16-.11-.18-.21,0-.13.08-.21.23-.25.15-.02.29-.05.43-.05,1.36-.03,2.69-.28,4.02-.6.64-.15,1.27-.31,1.93-.38.11-.02.24-.03.36-.03.47-.02.67.15.72.62.02.07,0,.15.02.21.02.18-.07.44.11.54.23.11.38-.13.54-.28.05-.05.11-.1.15-.16.36-.57.91-.87,1.54-1,1.54-.34,3.07-.7,4.66-.72.8-.02,1.6-.03,2.39-.16.2-.03.39-.03.57.05.18.08.29.29.26.47s-.13.33-.33.36-.38.05-.57.05h-1.9c-1.21,0-2.42.1-3.61.31-.24.05-.47.05-.72.07-.78.07-1.45.31-1.99.91-.2.21-.41.41-.67.54-.38.2-.72.1-.91-.28-.02-.05-.03-.1-.05-.13-.08-.2-.03-.49-.26-.56-.16-.05-.38.07-.56.1-1.09.21-2.19.44-3.28.64-.69.13-1.39.13-2.09.1ZM65.1,43.49c-.02.16-.15.31-.33.34-.41.07-.82.11-1.22.15-.39.03-.77.07-1.16.1-.96.08-1.83.43-2.68.85-.29.15-.54.39-.82.61-.26.21-.52.44-.8.62-.38.25-.64.18-.82-.23-.08-.18-.15-.36-.21-.54-.05-.13-.1-.28-.15-.41-.1-.29-.28-.42-.59-.42-.67.03-1.36.03-2.03.07-1.06.05-2.12.2-3.17.33-.51.07-1.01.03-1.52.05-.16,0-.34-.02-.47-.13-.05-.03-.07-.11-.08-.18,0-.03.03-.1.07-.11.13-.05.28-.1.41-.13,1.03-.18,2.04-.38,3.07-.54,1.23-.2,2.45-.29,3.69-.25.15,0,.29.02.44.03.38.07.67.26.82.64.13.34.26.67.41,1.05.34-.15.54-.36.75-.56.42-.38.9-.65,1.4-.88.98-.44,1.99-.7,3.07-.79.36-.03.72-.1,1.08-.13.16-.02.34,0,.51.03.21.07.34.26.33.44Z"/></g></svg>