<?xml version="1.0" encoding="UTF-8"?><svg id="Layer_1" xmlns="http://www.w3.org/2000/svg" xmlns:xlink="http://www.w3.org/1999/xlink" viewBox="0 0 112.81 97.67"><defs><style>.cls-1{fill:none;}.cls-2{clip-path:url(#clippath);}.cls-3{fill:#0f0e0c;}</style><clipPath id="clippath"><rect class="cls-1" width="112.81" height="97.67"/></clipPath></defs><g class="cls-2"><path class="cls-3" d="M9.5,79.87c0,.52-.43.95-.95.95s-.95-.43-.95-.95V19.54s-.02-.05-.02-.08h1.92s-.01.06-.01.08v60.33ZM17.08,12.96V1.05c0-.57-.46-1.02-1.02-1.02s-1.03.46-1.03,1.02v11.91c0,2.45-2,4.45-4.46,4.45h-.99V1.05C9.58.48,9.12.02,8.55.02s-1.02.46-1.02,1.02v16.36h-.99c-2.46,0-4.46-2-4.46-4.45V1.05C2.08.48,1.62.02,1.06.02S.03.48.03,1.05v11.91c0,3.26,2.42,5.96,5.56,6.42,0,.05-.03.1-.03.16v60.33c0,1.65,1.34,2.99,2.99,2.99s2.99-1.34,2.99-2.99V19.54c0-.06-.02-.1-.03-.16,3.14-.46,5.56-3.16,5.56-6.42h0ZM109.17,80.85v-31.91h1.56v31.91h-1.56ZM105.37,14.69c1.32-4.19,3-8.32,5.02-12.25.05-.09.08-.19.09-.29.02-.07.02-.11.13-.1.11,0,.11.05.11.12v44.71h-8.44c-1.17-11.08-.12-21.91,3.09-32.19ZM110.8,0c-1.1-.1-2.03.58-2.29,1.61-2.04,4-3.75,8.2-5.09,12.46-3.38,10.84-4.42,22.26-3.07,33.95.06.52.5.91,1.03.91h5.76v32.93c0,.57.45,1.03,1.03,1.03h3.6c.56,0,1.03-.45,1.03-1.03V2.17c0-1.15-.84-2.06-1.98-2.16h0ZM55.89,9.44c17.66,0,32.02,14.36,32.02,32s-14.36,32-32.02,32-32.02-14.36-32.02-32S38.24,9.44,55.89,9.44ZM55.89,75.5c18.79,0,34.07-15.28,34.07-34.05S74.68,7.39,55.89,7.39,21.82,22.67,21.82,41.44s15.29,34.05,34.07,34.05ZM66.32,90.23l-2.68-1.64-11.56-7.11c1.25.13,2.53.19,3.81.19,8.28,0,15.98-2.51,22.38-6.81l-11.95,15.37ZM55.9,95.2l-17.61-17.59c2.66,1.3,5.5,2.3,8.45,2.99l14.72,9.05-5.56,5.55ZM55.89,3.27c21.06,0,38.2,17.12,38.2,38.17s-17.14,38.17-38.2,38.17c-9.37,0-17.96-3.39-24.61-9.01l-4.56-4.55c-5.63-6.65-9.03-15.24-9.03-24.61C17.7,20.4,34.83,3.27,55.89,3.27ZM55.89,1.22C33.7,1.22,15.65,19.27,15.65,41.44c0,9.68,3.44,18.57,9.16,25.52.03.06.07.12.12.17.02.03.04.05.07.08.03.03.06.06.07.07l.16.16c1.43,1.68,2.99,3.25,4.68,4.67l25.28,25.26c.2.2.46.3.73.3s.52-.1.72-.3l6.63-6.62,2.78,1.71c.45.27,1.02.17,1.35-.24l19.53-25.12s.03-.07.05-.1c5.74-6.95,9.19-15.86,9.19-25.55C96.14,19.27,78.09,1.22,55.89,1.22"/></g></svg>