<svg xmlns="http://www.w3.org/2000/svg" xmlns:xlink="http://www.w3.org/1999/xlink" width="1920" zoomAndPan="magnify" viewBox="0 0 1440 809.999993" height="1080" preserveAspectRatio="xMidYMid meet" version="1.2"><defs><clipPath id="c1c623fd72"><path d="M 494.214844 243 L 945.714844 243 L 945.714844 567 L 494.214844 567 Z M 494.214844 243 "/></clipPath></defs><g id="aa7ae7918d"><rect x="0" width="1440" y="0" height="809.999993" style="fill:#ffffff;fill-opacity:1;stroke:none;"/><rect x="0" width="1440" y="0" height="809.999993" style="fill:#ffffff;fill-opacity:1;stroke:none;"/><g clip-rule="nonzero" clip-path="url(#c1c623fd72)"><path style=" stroke:none;fill-rule:nonzero;fill:#000000;fill-opacity:1;" d="M 538.113281 260.628906 C 537.972656 259.085938 537.691406 257.539062 537.480469 255.992188 C 537.339844 255.152344 537.058594 254.378906 536.425781 253.746094 C 535.445312 252.621094 533.617188 252.902344 533.054688 254.308594 C 532.777344 255.011719 532.636719 255.710938 532.566406 256.414062 C 531.722656 263.4375 530.808594 270.460938 530.035156 277.484375 C 529.125 285.5625 528.210938 293.640625 526.734375 301.578125 C 526.523438 302.628906 526.386719 303.753906 525.824219 305.230469 C 525.332031 303.753906 525.472656 302.769531 525.472656 301.71875 C 525.472656 295.605469 525.542969 289.425781 525.613281 283.316406 C 525.683594 276.855469 525.402344 270.390625 524.910156 263.929688 C 524.769531 261.824219 524.488281 259.785156 524.207031 257.75 C 524.066406 256.695312 523.925781 255.710938 523.292969 254.800781 C 522.453125 253.464844 520.695312 253.535156 520.0625 254.941406 C 519.714844 255.710938 519.503906 256.484375 519.363281 257.328125 C 518.519531 263.226562 517.535156 269.058594 516.972656 274.957031 C 515.851562 285.703125 515.078125 296.519531 513.671875 307.265625 C 513.183594 310.777344 512.621094 314.289062 511.847656 317.730469 C 511.707031 318.292969 511.707031 318.996094 510.933594 319.207031 C 510.441406 318.574219 510.652344 317.800781 510.652344 317.167969 C 510.441406 307.898438 510.234375 298.628906 510.023438 289.355469 C 509.8125 281.207031 509.601562 273.132812 509.390625 264.984375 C 509.320312 263.085938 509.109375 261.261719 508.6875 259.433594 C 508.476562 258.523438 508.195312 257.609375 507.5625 256.90625 C 506.582031 255.78125 504.894531 255.921875 504.050781 257.117188 C 503.703125 257.609375 503.421875 258.242188 503.28125 258.804688 C 502.789062 260.277344 502.296875 261.753906 501.875 263.296875 C 499.769531 271.023438 498.574219 278.960938 497.453125 286.898438 C 496.46875 293.992188 495.835938 301.15625 495.34375 308.320312 C 494.78125 316.539062 494.5 324.753906 494.5 332.972656 C 494.570312 338.382812 494.851562 343.789062 496.117188 349.128906 C 496.960938 352.570312 498.363281 355.800781 500.472656 358.75 C 502.507812 361.558594 504.753906 364.15625 507.5625 366.195312 C 508.546875 366.96875 509.109375 367.738281 509.179688 369.003906 C 509.320312 371.882812 509.742188 374.832031 509.671875 377.714844 C 509.601562 383.050781 509.671875 388.320312 509.601562 393.65625 C 509.460938 402.296875 509.039062 410.933594 508.335938 419.574219 C 507.773438 426.949219 507.210938 434.324219 506.652344 441.699219 C 506.160156 447.738281 505.808594 453.777344 505.246094 459.75 C 504.261719 469.722656 503.5625 479.695312 503.492188 489.667969 C 503.492188 492.058594 503.421875 494.445312 503.28125 496.832031 C 502.71875 507.648438 502.789062 518.464844 503.5625 529.28125 C 503.910156 534.269531 504.261719 539.257812 505.386719 544.171875 C 505.949219 546.632812 506.652344 549.019531 507.914062 551.195312 C 509.039062 553.234375 510.582031 554.917969 512.550781 556.183594 C 516.273438 558.570312 520.625 557.097656 522.664062 554.496094 C 523.785156 553.023438 524.699219 551.335938 525.472656 549.652344 C 527.648438 544.734375 528.84375 539.609375 529.824219 534.339844 C 531.160156 527.597656 531.300781 520.714844 531.582031 513.832031 C 532.074219 503.4375 531.511719 493.042969 530.808594 482.644531 C 530.105469 470.917969 529.265625 459.1875 528.421875 447.457031 C 528.210938 444.367188 527.929688 441.207031 527.648438 438.117188 C 526.945312 430.671875 526.105469 423.226562 525.542969 415.710938 C 524.699219 404.683594 524.558594 393.65625 524.699219 382.628906 C 524.769531 378.765625 525.332031 374.972656 525.894531 371.109375 C 526.035156 370.058594 526.386719 369.074219 527.085938 368.300781 C 528.773438 366.40625 530.246094 364.4375 532.074219 362.683594 C 535.585938 359.242188 537.550781 355.167969 537.972656 350.320312 C 538.886719 340.699219 539.304688 331.007812 539.585938 321.3125 C 539.9375 309.722656 539.445312 298.207031 539.167969 286.617188 C 539.167969 277.90625 538.816406 269.269531 538.113281 260.628906 Z M 534.882812 321.03125 C 534.742188 327.074219 534.320312 333.113281 534.039062 339.152344 C 533.898438 341.894531 533.828125 344.5625 533.6875 347.300781 C 533.617188 348.566406 533.617188 349.828125 533.546875 351.023438 C 533.195312 355.308594 531.230469 358.75 527.859375 361.347656 C 527.789062 361.417969 527.71875 361.488281 527.578125 361.558594 C 523.363281 364.085938 521.609375 368.019531 521.46875 372.796875 C 521.328125 377.785156 521.117188 382.769531 521.046875 387.757812 C 520.976562 393.304688 521.1875 398.785156 521.1875 404.332031 C 521.1875 410.582031 521.679688 416.835938 522.3125 423.015625 C 522.945312 429.6875 522.945312 436.359375 523.15625 442.960938 C 523.644531 459.609375 524.066406 476.253906 524.558594 492.972656 C 524.910156 503.085938 525.402344 513.128906 525.753906 523.242188 C 526.035156 529.84375 524.769531 536.308594 523.503906 542.769531 C 523.15625 544.734375 522.03125 546.421875 520.625 547.894531 C 519.992188 548.597656 519.222656 549.089844 518.308594 549.441406 C 516.203125 550.144531 515.007812 549.722656 513.953125 547.683594 C 512.972656 545.859375 512.339844 543.820312 511.847656 541.785156 C 510.933594 538.0625 510.441406 534.199219 510.09375 530.40625 C 509.109375 520.433594 509.25 510.460938 509.671875 500.414062 C 509.882812 494.796875 510.234375 489.179688 510.652344 483.558594 C 511.074219 477.519531 511.707031 471.550781 512.269531 465.507812 C 512.761719 459.46875 513.253906 453.5 513.742188 447.457031 C 514.65625 435.585938 514.867188 423.71875 515.289062 411.847656 C 515.640625 401.734375 515.5 391.621094 515.921875 381.578125 C 516.0625 378.0625 516.132812 374.480469 515.78125 370.96875 C 515.570312 369.003906 515.007812 367.457031 513.253906 366.265625 C 511.074219 364.71875 509.039062 362.894531 507.140625 360.925781 C 501.804688 355.378906 499.347656 348.777344 498.785156 341.261719 C 498.082031 333.113281 498.152344 324.964844 498.433594 316.886719 C 498.714844 309.09375 499.136719 301.296875 499.980469 293.5 C 500.960938 284.71875 502.085938 275.941406 504.332031 267.300781 C 504.402344 266.878906 504.613281 266.527344 504.753906 266.179688 C 504.753906 266.109375 504.894531 266.109375 505.035156 266.109375 C 505.105469 266.109375 505.246094 266.179688 505.246094 266.179688 C 505.316406 266.457031 505.386719 266.808594 505.386719 267.089844 C 505.457031 269.902344 505.457031 272.710938 505.527344 275.519531 C 505.597656 289.144531 506.300781 302.769531 506.933594 316.398438 C 507.003906 318.082031 507.28125 319.699219 507.5625 321.3125 C 507.703125 322.015625 507.914062 322.71875 508.265625 323.351562 C 508.6875 324.261719 509.25 324.964844 510.371094 324.894531 C 511.355469 324.824219 511.847656 324.191406 512.199219 323.351562 C 512.550781 322.578125 512.832031 321.804688 512.972656 320.960938 C 513.8125 317.519531 514.515625 314.078125 514.9375 310.566406 C 516.273438 299.820312 517.535156 289.074219 518.800781 278.328125 C 519.152344 275.449219 519.574219 272.570312 519.992188 269.691406 C 520.132812 268.777344 520.273438 267.863281 521.117188 266.667969 C 521.257812 271.375 521.539062 275.660156 521.539062 279.875 C 521.539062 290.199219 521.398438 300.523438 521.257812 310.777344 C 521.257812 313.796875 521.257812 316.816406 521.257812 319.839844 C 521.257812 320.75 521.328125 321.734375 521.75 322.578125 C 522.3125 323.632812 523.574219 323.703125 524.277344 322.71875 C 524.910156 321.875 525.050781 320.820312 525.261719 319.769531 C 526.175781 315.484375 527.015625 311.199219 527.859375 306.914062 C 529.824219 296.871094 531.089844 286.757812 532.425781 276.644531 C 532.707031 274.535156 532.777344 272.289062 533.476562 270.25 C 534.320312 270.25 534.039062 270.8125 534.039062 271.09375 C 534.8125 287.953125 535.304688 304.457031 534.882812 321.03125 Z M 944.867188 293.5 C 944.445312 281.980469 944.308594 270.460938 944.027344 258.875 C 943.957031 257.1875 943.886719 255.503906 943.464844 253.816406 C 943.324219 253.183594 943.113281 252.480469 942.691406 251.851562 C 941.777344 250.445312 939.742188 250.375 938.757812 251.78125 C 938.265625 252.410156 937.988281 253.183594 937.707031 253.886719 C 932.015625 266.390625 928.433594 279.382812 925.90625 292.726562 C 924.574219 299.890625 923.449219 307.054688 922.253906 314.21875 C 921.34375 319.839844 920.429688 325.386719 919.585938 331.007812 C 918.605469 337.609375 918.042969 344.210938 917.480469 350.882812 C 916.917969 357.203125 916.566406 363.597656 917.058594 369.917969 C 917.832031 379.679688 920.21875 388.949219 926.046875 397.167969 C 926.609375 398.011719 927.03125 398.855469 927.3125 399.835938 C 928.714844 404.683594 929.207031 409.601562 928.714844 414.585938 C 928.226562 419.433594 927.523438 424.28125 926.75 429.054688 C 925.695312 435.9375 924.011719 442.753906 922.253906 449.496094 C 919.164062 461.363281 916.285156 473.304688 915.511719 485.527344 C 915.234375 490.300781 914.742188 495.078125 914.671875 499.785156 C 914.460938 509.6875 915.722656 519.449219 917.902344 529.074219 C 919.164062 534.832031 921.132812 540.378906 923.871094 545.648438 C 926.539062 550.777344 930.613281 554.707031 935.457031 557.941406 C 935.878906 558.21875 936.371094 558.5 936.792969 558.640625 C 938.828125 559.414062 940.515625 558.640625 941.214844 556.605469 C 941.355469 556.113281 941.496094 555.621094 941.496094 555.128906 C 941.707031 552.320312 941.917969 549.582031 942.058594 546.773438 C 942.269531 540.378906 942.410156 534.058594 942.410156 527.667969 C 942.550781 510.25 942.972656 492.902344 943.253906 475.480469 C 943.675781 451.390625 943.675781 427.371094 943.886719 399.066406 C 943.746094 382.839844 944.378906 362.332031 944.796875 341.824219 C 945.148438 325.878906 945.429688 309.722656 944.867188 293.5 Z M 940.375 345.613281 C 939.601562 371.460938 939.320312 397.308594 939.320312 423.15625 C 939.320312 442.683594 939.039062 462.136719 938.6875 481.664062 C 938.40625 496.902344 938.054688 512.074219 937.917969 527.316406 C 937.847656 533.214844 937.707031 539.046875 937.636719 544.945312 C 937.636719 545.4375 937.566406 545.929688 937.496094 546.421875 C 937.496094 546.492188 937.074219 546.632812 937.003906 546.5625 C 936.582031 546.140625 936.160156 545.71875 935.808594 545.226562 C 927.382812 533.847656 922.464844 521.277344 921.414062 507.300781 C 920.640625 497.746094 920.78125 488.195312 921.695312 478.714844 C 922.535156 470.003906 924.574219 461.433594 926.960938 453.007812 C 929.347656 444.648438 931.59375 436.289062 933.140625 427.722656 C 934.125 422.242188 934.894531 416.695312 934.753906 411.144531 C 934.617188 407.632812 934.125 404.191406 932.929688 400.890625 C 932.4375 399.558594 931.945312 398.292969 930.894531 397.238281 C 930.613281 396.957031 930.332031 396.605469 930.191406 396.253906 C 928.015625 391.972656 925.414062 387.898438 923.660156 383.402344 C 922.464844 380.382812 921.972656 377.292969 921.625 374.0625 C 920.78125 366.335938 921.203125 358.539062 922.042969 350.8125 C 922.535156 346.386719 922.816406 341.894531 923.378906 337.46875 C 924.011719 332.339844 924.785156 327.214844 925.484375 322.085938 C 926.46875 315.625 927.453125 309.09375 928.433594 302.628906 C 930.121094 291.535156 932.507812 280.507812 935.949219 269.761719 C 936.652344 267.511719 937.566406 265.265625 938.40625 263.015625 C 938.546875 262.667969 938.6875 262.246094 939.25 262.316406 C 939.671875 262.667969 939.53125 263.226562 939.53125 263.648438 C 939.953125 277.976562 940.375 292.304688 940.726562 306.5625 C 941.007812 319.558594 940.726562 332.621094 940.375 345.613281 Z M 905.121094 368.019531 C 904.207031 364.296875 903.082031 360.574219 903.292969 356.640625 C 903.363281 355.519531 902.660156 354.675781 901.890625 353.972656 C 901.46875 353.550781 900.976562 353.339844 900.484375 353.621094 C 898.800781 354.394531 897.183594 353.832031 895.570312 353.410156 C 886.859375 351.234375 878.363281 348.496094 870.078125 344.984375 C 866.636719 343.507812 863.335938 341.753906 860.035156 339.996094 C 859.121094 339.503906 858.558594 338.871094 858.347656 337.890625 C 857.507812 334.9375 856.242188 332.199219 854.835938 329.601562 C 850.976562 322.578125 846.902344 315.695312 841.632812 309.515625 C 840.582031 308.25 839.386719 307.054688 838.472656 305.511719 C 839.386719 305.160156 840.160156 304.878906 840.933594 304.667969 C 842.898438 303.964844 844.933594 303.402344 846.832031 302.558594 C 850.0625 301.085938 851.117188 298.976562 850.554688 295.464844 C 850.484375 295.1875 850.414062 294.835938 850.34375 294.554688 C 849.148438 287.390625 846.621094 280.71875 843.8125 274.113281 C 841.703125 269.269531 839.667969 264.351562 837.5625 259.503906 C 836.578125 257.328125 835.59375 255.152344 834.472656 253.042969 C 833.558594 251.289062 832.222656 249.8125 830.609375 248.617188 C 828.433594 247.003906 826.042969 246.652344 823.515625 247.777344 C 822.460938 248.199219 821.480469 248.757812 820.496094 249.390625 C 818.390625 250.726562 816.5625 252.410156 814.738281 254.167969 C 809.890625 258.875 805.46875 264 801.464844 269.480469 C 800.832031 270.390625 800.269531 271.445312 799.289062 272.078125 C 799.007812 271.9375 798.726562 271.796875 798.515625 271.585938 C 792.195312 265.335938 784.679688 260.910156 776.605469 257.398438 C 754.625 247.636719 731.800781 243 707.921875 243.140625 C 702.164062 243.140625 696.476562 243.492188 690.855469 244.546875 C 687.90625 245.105469 684.957031 245.878906 682.007812 246.371094 C 655.460938 251.078125 632.007812 262.316406 611.429688 279.734375 C 596.121094 292.726562 583.902344 308.320312 574.070312 325.808594 C 556.511719 357.0625 549.839844 390.496094 554.40625 426.035156 C 556.371094 441.347656 560.515625 455.957031 566.695312 470.074219 C 590.710938 525.140625 645.210938 565.175781 711.222656 566.71875 C 723.863281 567 736.433594 565.804688 748.722656 562.996094 C 787.769531 554.078125 819.230469 533.566406 843.25 501.539062 C 850.203125 492.269531 855.960938 482.226562 860.804688 471.6875 C 862.421875 468.175781 861.929688 468.105469 865.230469 470.355469 C 868.671875 472.671875 872.253906 474.78125 875.976562 476.746094 C 877.449219 477.519531 878.996094 478.152344 880.679688 478.292969 C 882.367188 478.433594 883.699219 477.941406 884.894531 476.675781 C 888.195312 473.164062 891.636719 469.933594 895.710938 467.265625 C 897.464844 466.140625 899.011719 464.734375 900.273438 463.050781 C 902.03125 460.734375 901.609375 458.203125 899.222656 456.589844 C 898.589844 456.167969 897.957031 455.886719 897.253906 455.605469 C 894.234375 454.480469 891.355469 453.007812 888.476562 451.601562 C 881.804688 448.300781 875.625 444.367188 869.515625 440.152344 C 859.191406 432.988281 850.0625 424.492188 841.703125 415.078125 C 837.28125 410.09375 833.207031 404.824219 829.976562 398.925781 C 826.605469 392.742188 824.289062 386.210938 822.53125 379.398438 C 820.214844 370.199219 817.757812 361.066406 815.371094 351.9375 C 813.472656 344.632812 811.085938 337.539062 807.363281 331.007812 C 807.152344 330.65625 806.871094 330.304688 807.292969 329.882812 C 807.363281 329.882812 807.503906 329.882812 807.574219 329.953125 C 808.066406 330.304688 808.628906 330.65625 809.121094 331.078125 C 825.761719 343.929688 842.96875 356.082031 862.140625 365 C 862.773438 365.28125 863.125 365.703125 863.265625 366.40625 C 864.597656 371.882812 866.285156 377.222656 867.335938 382.769531 C 868.882812 390.777344 870.148438 398.785156 870.148438 406.929688 C 870.148438 414.027344 870.148438 421.121094 869.234375 428.144531 C 869.164062 428.984375 868.882812 429.757812 869.164062 430.601562 C 869.375 431.375 869.867188 431.867188 870.636719 432.074219 C 871.480469 432.285156 872.394531 431.9375 872.816406 431.164062 C 873.097656 430.601562 873.308594 430.039062 873.519531 429.40625 C 874.21875 427.019531 874.78125 424.5625 875.132812 422.101562 C 875.695312 418.519531 875.765625 414.867188 875.976562 411.214844 C 876.609375 401.875 875.835938 392.671875 874.007812 383.542969 C 873.097656 378.835938 871.972656 374.203125 870.496094 369.636719 C 870.359375 369.285156 870.078125 368.863281 870.429688 368.511719 C 870.777344 368.089844 871.199219 368.300781 871.550781 368.441406 C 875.976562 369.707031 880.398438 370.832031 884.753906 372.164062 C 890.933594 374.132812 897.394531 374.550781 903.785156 375.605469 C 905.890625 375.957031 906.945312 374.691406 906.382812 372.585938 C 906.03125 371.179688 905.472656 369.636719 905.121094 368.019531 Z M 848.65625 330.445312 C 849.21875 331.425781 849.992188 332.269531 850.273438 334.027344 C 847.042969 332.058594 844.445312 330.164062 841.914062 328.195312 C 841.074219 327.566406 840.300781 326.863281 839.527344 326.160156 C 832.996094 320.261719 825.621094 315.625 817.476562 312.253906 C 816.84375 311.972656 816.070312 311.832031 815.582031 311.199219 C 815.789062 310.636719 816.421875 310.707031 816.84375 310.636719 C 821.269531 309.792969 825.621094 308.953125 829.90625 307.757812 C 831.171875 307.40625 832.011719 307.6875 832.855469 308.8125 C 838.265625 315.90625 844.023438 322.71875 848.65625 330.445312 Z M 816.070312 259.15625 C 817.617188 257.609375 819.230469 256.132812 820.847656 254.660156 C 821.902344 253.675781 823.164062 252.902344 824.5 252.269531 C 825.761719 251.710938 826.957031 251.78125 827.941406 252.832031 C 828.640625 253.605469 829.414062 254.308594 829.976562 255.222656 C 830.75 256.34375 831.382812 257.539062 831.941406 258.734375 C 834.753906 264.5625 837.5625 270.320312 840.300781 276.152344 C 843.039062 282.121094 845.425781 288.230469 846.480469 294.765625 C 846.972656 297.785156 846.761719 298.347656 843.8125 299.398438 C 835.804688 302.070312 827.871094 304.738281 819.582031 306.421875 C 814.597656 307.40625 809.539062 308.109375 804.484375 308.671875 C 803.570312 308.8125 802.589844 308.8125 801.675781 308.8125 C 800.550781 308.8125 800.269531 308.601562 800.269531 307.617188 C 800.339844 304.105469 799.5 300.804688 798.234375 297.714844 C 798.9375 296.871094 799.777344 296.730469 800.550781 296.449219 C 806.308594 294.132812 811.507812 290.972656 816 286.617188 C 818.320312 284.371094 820.566406 282.050781 822.742188 279.664062 C 826.394531 275.800781 828.574219 271.09375 830.46875 266.179688 C 830.75 265.546875 830.820312 264.773438 830.820312 264.070312 C 830.890625 261.542969 829.273438 259.925781 826.746094 259.996094 C 825.550781 259.996094 824.5 260.277344 823.445312 260.769531 C 821.480469 261.683594 819.582031 262.808594 817.898438 264.28125 C 815.789062 266.109375 813.613281 267.933594 811.648438 269.972656 C 805.609375 276.292969 800.128906 283.105469 795.847656 290.761719 C 795.566406 291.183594 795.355469 291.671875 795.003906 292.09375 C 794.792969 292.375 794.441406 292.375 794.160156 292.164062 C 793.949219 291.953125 793.597656 291.671875 793.667969 291.464844 C 793.808594 290.832031 794.019531 290.269531 794.300781 289.707031 C 799.707031 278.257812 807.152344 268.144531 816.070312 259.15625 Z M 800.691406 288.792969 C 804.695312 283.738281 808.628906 278.609375 813.050781 273.902344 C 815.230469 271.515625 817.617188 269.410156 820.214844 267.371094 C 821.199219 266.597656 822.25 265.96875 823.304688 265.335938 C 823.515625 265.195312 823.9375 265.335938 824.148438 265.476562 C 824.359375 265.617188 824.429688 266.039062 824.359375 266.320312 C 824.359375 266.597656 824.21875 266.878906 824.078125 267.230469 C 823.09375 269.972656 821.691406 272.570312 819.722656 274.746094 C 814.597656 280.507812 808.980469 285.773438 802.027344 289.355469 C 801.535156 289.636719 801.042969 290.199219 800.339844 289.847656 C 800.128906 289.425781 800.480469 289.144531 800.691406 288.792969 Z M 780.816406 481.242188 C 780.398438 481.242188 779.90625 481.03125 779.625 481.171875 C 777.097656 482.367188 774.285156 482.15625 771.617188 482.503906 C 765.4375 483.347656 759.1875 483.910156 753.007812 484.683594 C 745.84375 485.527344 738.75 486.4375 731.660156 487.421875 C 724.425781 488.335938 717.191406 489.320312 710.027344 490.371094 C 704.761719 491.074219 699.496094 491.847656 694.296875 492.621094 C 693.804688 492.691406 693.246094 492.761719 692.753906 492.832031 C 691.980469 492.902344 691.558594 492.621094 691.488281 491.847656 C 691.207031 489.808594 690.996094 487.703125 690.785156 485.667969 C 689.804688 475.902344 688.820312 466.210938 687.835938 456.449219 C 686.925781 447.457031 686.011719 438.398438 685.097656 429.40625 C 684.113281 420.066406 683.203125 410.792969 682.289062 401.453125 C 681.515625 393.867188 680.882812 386.28125 680.183594 378.765625 C 679.480469 371.320312 678.707031 363.875 677.933594 356.363281 C 677.304688 350.179688 676.601562 343.929688 675.898438 337.75 C 675.195312 331.566406 673.371094 310.847656 673.089844 307.335938 C 673.019531 305.792969 673.089844 305.652344 674.773438 305.371094 C 677.445312 305.019531 680.113281 304.527344 682.851562 304.386719 C 691.488281 303.753906 700.054688 303.050781 708.695312 302.769531 C 716.417969 302.558594 724.074219 301.859375 731.730469 301.367188 C 734.398438 301.226562 737.136719 301.015625 739.804688 300.945312 C 748.863281 300.523438 757.921875 300.171875 766.984375 299.820312 C 768.316406 299.75 769.652344 299.820312 771.125 299.820312 C 771.054688 300.453125 771.125 300.664062 771.054688 300.804688 C 770.496094 302.28125 769.933594 303.683594 769.371094 305.160156 C 767.824219 305.722656 766.28125 305.160156 764.734375 305.160156 C 759.75 305.300781 754.761719 305.722656 749.777344 306.351562 C 741.492188 307.40625 733.273438 308.460938 724.988281 309.164062 C 722.390625 309.375 719.789062 309.863281 717.332031 310.566406 C 716.207031 310.847656 715.15625 311.269531 714.171875 311.832031 C 711.644531 313.167969 710.308594 315.273438 710.167969 318.082031 C 710.097656 319.417969 710.167969 320.75 710.519531 322.085938 C 711.082031 324.402344 712.066406 326.652344 713.117188 328.757812 C 717.472656 337.609375 723.019531 345.613281 729.128906 353.269531 C 731.519531 356.222656 734.328125 358.679688 737.488281 360.714844 C 738.402344 361.277344 739.3125 361.769531 740.226562 362.261719 C 743.105469 363.804688 745.984375 363.875 748.792969 362.050781 C 749.988281 361.277344 751.324219 360.574219 752.515625 359.734375 C 762.207031 352.917969 770.355469 344.703125 776.464844 334.589844 C 778.21875 331.636719 779.835938 328.617188 781.589844 325.667969 C 781.730469 325.386719 782.011719 325.105469 782.363281 325.246094 C 782.574219 325.316406 782.855469 325.667969 782.925781 325.878906 C 783.277344 328.265625 783.625 330.585938 783.90625 332.972656 C 784.890625 341.753906 785.945312 350.53125 786.855469 359.382812 C 787.839844 368.160156 788.683594 377.011719 789.597656 385.789062 C 790.296875 392.742188 791.070312 399.695312 791.773438 406.582031 C 792.546875 413.746094 793.25 420.910156 793.949219 428.003906 C 794.652344 435.167969 795.425781 442.332031 796.128906 449.425781 C 796.828125 455.957031 797.53125 462.488281 798.234375 469.019531 C 798.585938 472.039062 799.007812 474.992188 799.429688 478.011719 C 799.570312 479.34375 799.359375 479.625 797.953125 479.765625 C 792.96875 480.328125 788.050781 480.890625 783.066406 481.453125 C 782.292969 481.3125 781.589844 481.242188 780.816406 481.242188 Z M 779.90625 521.347656 C 778.078125 521.558594 776.183594 521.769531 774.355469 522.046875 C 766.28125 523.03125 758.273438 524.015625 750.199219 525 C 744.511719 525.699219 738.820312 526.332031 733.132812 527.105469 C 726.25 528.019531 719.300781 528.933594 712.417969 529.84375 C 705.605469 530.757812 698.792969 531.742188 691.980469 532.65625 C 685.167969 533.566406 678.355469 534.339844 671.613281 535.746094 C 671.191406 535.816406 670.84375 535.746094 670.210938 535.746094 C 669.859375 533.707031 669.648438 531.601562 669.4375 529.5625 C 668.664062 520.644531 667.824219 511.722656 667.050781 502.804688 C 666.347656 494.726562 665.644531 486.648438 664.941406 478.503906 C 664.242188 470.707031 663.46875 462.980469 662.765625 455.183594 C 662.273438 449.777344 661.78125 444.367188 661.292969 439.03125 C 660.519531 431.023438 659.816406 423.085938 659.042969 415.078125 C 658.550781 409.671875 658.0625 404.261719 657.570312 398.925781 C 656.796875 391.058594 656.09375 383.191406 655.320312 375.324219 C 654.832031 370.269531 654.339844 365.140625 653.917969 360.082031 C 653.707031 357.625 653.777344 357.554688 656.304688 357.132812 C 660.308594 356.5 664.3125 355.871094 668.3125 355.167969 C 669.4375 354.957031 670.5625 354.746094 671.683594 354.535156 C 673.160156 354.324219 673.511719 354.535156 673.652344 356.152344 C 674.351562 362.542969 674.984375 369.003906 675.617188 375.394531 C 676.320312 382.136719 677.09375 388.878906 677.792969 395.554688 C 678.566406 402.578125 679.269531 409.601562 680.042969 416.695312 C 680.8125 424.140625 681.585938 431.585938 682.289062 439.101562 C 682.992188 446.265625 683.695312 453.429688 684.394531 460.523438 C 685.167969 467.96875 685.941406 475.410156 686.644531 482.855469 C 686.925781 485.878906 687.203125 488.898438 687.484375 491.847656 C 687.554688 492.761719 687.625 493.742188 687.835938 494.65625 C 688.1875 496.414062 689.03125 497.183594 690.855469 497.113281 C 691.980469 497.113281 693.175781 496.972656 694.226562 496.695312 C 700.265625 494.867188 706.515625 494.445312 712.699219 493.8125 C 719.4375 493.113281 726.109375 492.339844 732.851562 491.566406 C 740.71875 490.652344 748.582031 489.738281 756.449219 488.828125 C 762.136719 488.125 767.824219 487.351562 773.445312 486.648438 C 773.9375 486.578125 774.496094 486.507812 774.988281 486.4375 C 778.21875 486.15625 778.007812 485.949219 778.289062 489.179688 C 778.992188 497.605469 779.765625 505.964844 780.535156 514.394531 C 780.675781 516.078125 780.886719 517.695312 781.308594 519.308594 C 781.800781 520.714844 781.449219 521.136719 779.90625 521.347656 Z M 751.394531 314.007812 C 744.792969 314.851562 738.121094 315.203125 731.589844 316.46875 C 728.921875 316.957031 726.320312 317.800781 723.792969 318.644531 C 722.949219 318.925781 722.039062 319.417969 721.265625 319.910156 C 718.597656 321.734375 718.386719 324.824219 720.773438 327.144531 C 722.039062 328.335938 723.652344 328.828125 725.339844 328.96875 C 729.058594 329.320312 732.851562 329.320312 736.574219 328.6875 C 744.863281 327.355469 752.726562 324.824219 760.382812 321.382812 C 763.191406 320.121094 766 318.714844 768.808594 317.378906 C 769.722656 316.957031 770.285156 316.957031 770.707031 317.660156 C 772.460938 320.402344 774.988281 322.15625 777.585938 323.632812 C 777.726562 324.472656 777.304688 324.964844 777.027344 325.527344 C 775.480469 328.265625 774.003906 331.007812 772.390625 333.675781 C 768.738281 340.066406 764.246094 345.753906 758.625 350.53125 C 756.167969 352.640625 753.710938 354.675781 751.183594 356.710938 C 749.847656 357.765625 748.441406 358.539062 747.039062 359.523438 C 745.28125 360.714844 743.527344 360.574219 741.773438 359.453125 C 740.71875 358.75 739.664062 358.046875 738.75 357.273438 C 736.644531 355.589844 734.75 353.621094 733.132812 351.445312 C 727.65625 343.859375 722.179688 336.203125 717.613281 327.984375 C 716.488281 325.949219 715.507812 323.914062 714.875 321.734375 C 714.59375 320.75 714.453125 319.699219 714.382812 318.644531 C 714.3125 316.957031 715.085938 315.90625 716.628906 315.203125 C 718.949219 314.21875 721.40625 313.65625 723.863281 313.375 C 732.992188 312.324219 742.050781 311.058594 751.113281 309.792969 C 756.589844 309.023438 762.066406 308.460938 767.542969 307.828125 C 768.597656 307.6875 768.878906 307.96875 768.878906 308.953125 C 768.878906 309.445312 768.808594 310.003906 768.808594 310.496094 C 768.808594 311.199219 768.386719 311.691406 767.753906 311.902344 C 766.84375 312.183594 765.929688 312.464844 765.015625 312.605469 C 762.839844 312.886719 760.664062 313.027344 758.484375 313.234375 C 756.167969 313.515625 753.78125 313.65625 751.394531 314.007812 Z M 755.253906 317.167969 C 751.183594 319.558594 741.839844 322.296875 734.328125 323.210938 C 730.957031 323.632812 727.515625 324.050781 724.144531 323.351562 C 724.144531 322.367188 724.847656 322.226562 725.339844 322.015625 C 729.269531 320.332031 733.484375 319.558594 737.699219 318.996094 C 742.824219 318.292969 748.023438 317.730469 753.148438 317.097656 C 753.710938 317.097656 754.203125 317.167969 755.253906 317.167969 Z M 784.679688 319.558594 C 781.308594 319.277344 778.289062 317.871094 776.042969 315.0625 C 774.917969 313.65625 774.425781 311.691406 774.425781 309.515625 C 774.636719 304.527344 776.394531 300.171875 780.257812 296.871094 C 782.996094 294.554688 786.15625 293.570312 789.808594 294.414062 C 791.140625 294.765625 792.335938 295.324219 793.25 296.378906 C 797.179688 300.945312 798.09375 306.140625 796.480469 311.832031 C 796.410156 312.042969 796.339844 312.253906 796.269531 312.394531 C 794.582031 316.257812 788.894531 319.910156 784.679688 319.558594 Z M 606.585938 296.449219 C 606.726562 295.394531 606.726562 294.132812 607.707031 293.359375 C 607.847656 293.5 607.988281 293.5 607.988281 293.570312 C 611.007812 301.507812 614.308594 309.375 615.925781 317.800781 C 617.679688 326.511719 618.382812 335.289062 617.960938 344.140625 C 617.890625 345.683594 618.171875 347.441406 616.835938 348.777344 C 615.433594 347.863281 615.011719 346.316406 614.238281 344.984375 C 610.867188 339.222656 608.550781 332.972656 606.375 326.722656 C 605.25 323.351562 604.6875 319.839844 604.6875 316.328125 C 604.828125 309.585938 605.601562 302.980469 606.585938 296.449219 Z M 616.835938 377.503906 C 618.59375 375.183594 620.558594 373.007812 622.738281 371.039062 C 627.582031 366.617188 632.707031 362.542969 638.117188 358.820312 C 638.539062 358.539062 638.890625 358.117188 639.800781 358.1875 C 637.835938 366.476562 633.550781 372.796875 626.316406 377.011719 C 623.367188 378.765625 620.769531 379.1875 616.417969 378.765625 C 616.136719 378.273438 616.484375 377.925781 616.835938 377.503906 Z M 858.066406 466.914062 C 856.945312 469.511719 855.890625 472.109375 854.695312 474.640625 C 838.894531 507.019531 814.527344 530.757812 782.222656 546.421875 C 768.246094 553.164062 753.570312 557.660156 738.261719 560.046875 C 725.828125 561.941406 713.398438 562.433594 700.898438 561.3125 C 657.007812 557.449219 614.238281 535.464844 585.9375 496.34375 C 585.234375 495.429688 584.601562 494.445312 584.042969 493.460938 C 575.121094 478.292969 568.101562 462.347656 564.167969 445.140625 C 560.65625 429.898438 559.25 414.515625 560.234375 398.925781 C 562.128906 368.863281 571.121094 341.121094 587.972656 316.117188 C 591.976562 310.144531 596.402344 304.527344 601.246094 299.1875 C 601.878906 298.488281 602.371094 297.714844 603.285156 297.363281 C 603.984375 297.503906 603.703125 297.996094 603.703125 298.347656 C 603.285156 302.351562 602.792969 306.421875 602.300781 310.425781 C 601.527344 317.027344 602.160156 323.492188 604.546875 329.8125 C 606.585938 335.289062 608.691406 340.699219 611.78125 345.683594 C 612.976562 347.511719 614.097656 349.40625 615.503906 351.09375 C 616.136719 351.796875 616.136719 352.5 615.855469 353.410156 C 613.886719 359.875 612.273438 366.476562 611.078125 373.148438 C 611.078125 373.21875 611.007812 373.359375 611.007812 373.429688 C 610.867188 373.570312 610.796875 373.851562 610.585938 373.851562 C 610.234375 373.992188 610.023438 373.710938 609.886719 373.429688 C 608.199219 370.339844 606.445312 367.246094 604.898438 364.085938 C 601.878906 357.976562 598.578125 352.078125 594.503906 346.667969 C 591.414062 342.59375 588.183594 338.660156 584.953125 334.730469 C 584.53125 334.238281 584.113281 333.816406 583.621094 333.464844 C 582.636719 332.691406 581.511719 333.113281 581.160156 334.308594 C 580.882812 335.359375 580.953125 336.34375 581.023438 337.398438 C 581.300781 340.839844 582.003906 344.210938 582.707031 347.582031 C 583.621094 352.007812 584.953125 356.222656 586.429688 360.503906 C 587.203125 362.753906 588.253906 364.929688 589.449219 367.039062 C 591.484375 370.550781 594.292969 373.289062 597.59375 375.464844 C 601.035156 377.785156 604.476562 380.171875 607.988281 382.417969 C 608.972656 383.050781 609.394531 383.824219 609.183594 384.949219 C 608.199219 392.390625 607.636719 399.835938 607.425781 407.351562 C 607.425781 407.632812 607.425781 407.984375 607.003906 408.125 C 606.234375 407.773438 606.023438 406.859375 605.671875 406.230469 C 602.441406 400.75 598.789062 395.554688 594.433594 390.917969 C 592.46875 388.878906 590.503906 386.914062 588.394531 385.019531 C 583.339844 380.523438 578.070312 376.238281 573.578125 371.179688 C 572.804688 370.339844 571.890625 369.566406 570.980469 368.933594 C 569.855469 368.160156 568.308594 368.933594 568.238281 370.339844 C 568.171875 370.96875 568.238281 371.601562 568.378906 372.234375 C 570.347656 383.683594 574.421875 394.289062 580.460938 404.121094 C 584.53125 410.722656 589.941406 415.640625 597.035156 418.800781 C 599.984375 420.066406 602.933594 421.46875 606.023438 422.3125 C 607.214844 422.59375 607.636719 423.367188 607.707031 424.5625 C 607.988281 428.703125 608.339844 432.847656 608.691406 436.992188 C 609.042969 441.558594 609.675781 446.125 610.445312 450.617188 C 610.515625 451.109375 610.726562 451.601562 610.375 452.09375 C 609.675781 451.953125 609.464844 451.320312 609.113281 450.828125 C 603.285156 442.050781 595.910156 434.746094 587.550781 428.421875 C 586.21875 427.441406 584.742188 426.597656 583.410156 425.683594 C 581.792969 424.5625 580.109375 423.507812 578.492188 422.382812 C 577.859375 421.960938 577.300781 421.539062 576.667969 421.257812 C 575.613281 420.769531 574.421875 421.539062 574.492188 422.664062 C 574.492188 423.085938 574.5625 423.507812 574.699219 423.859375 C 578.070312 436.710938 584.601562 447.597656 594.644531 456.378906 C 598.578125 459.820312 603.003906 462.558594 607.777344 464.664062 C 608.902344 465.15625 610.09375 465.71875 611.289062 465.859375 C 613.117188 466.070312 613.886719 467.054688 614.308594 468.738281 C 615.925781 475.410156 618.03125 481.945312 620.558594 488.335938 C 620.699219 488.6875 620.769531 489.109375 620.910156 489.460938 C 620.277344 490.019531 619.925781 489.390625 619.578125 489.179688 C 618.945312 488.757812 618.382812 488.335938 617.820312 487.914062 C 612.34375 483.347656 606.234375 479.765625 600.125 476.183594 C 594.222656 472.742188 588.324219 469.160156 582.355469 465.71875 C 581.652344 465.296875 580.882812 464.875 580.109375 464.664062 C 579.054688 464.316406 578 465.367188 578.210938 466.492188 C 578.28125 466.984375 578.492188 467.476562 578.703125 467.96875 C 581.023438 472.882812 583.128906 477.871094 585.796875 482.574219 C 587.414062 485.386719 589.238281 488.054688 591.484375 490.371094 C 596.191406 495.078125 601.878906 497.535156 608.339844 498.449219 C 613.535156 499.152344 618.734375 499.363281 623.929688 499.363281 C 624.914062 499.363281 625.476562 499.644531 625.96875 500.484375 C 627.019531 502.382812 628.074219 504.347656 629.199219 506.175781 C 632.359375 511.441406 635.9375 516.429688 640.363281 520.785156 C 641.558594 521.980469 642.820312 523.03125 644.085938 524.085938 C 644.507812 524.4375 644.929688 524.648438 645.417969 524.929688 C 646.050781 525.28125 646.613281 525.140625 647.105469 524.648438 C 647.597656 524.15625 647.667969 523.242188 647.246094 522.609375 C 646.894531 522.117188 646.402344 521.699219 645.910156 521.277344 C 638.46875 514.953125 633.199219 507.019531 628.917969 498.378906 C 628.777344 498.097656 628.636719 497.816406 628.566406 497.535156 C 628.425781 497.113281 628.496094 496.695312 628.917969 496.484375 C 629.40625 496.132812 629.96875 495.851562 630.53125 495.5 C 632.007812 494.65625 633.410156 493.8125 634.886719 493.042969 C 638.46875 490.933594 641.417969 488.195312 643.734375 484.824219 C 645.140625 482.855469 646.472656 480.890625 647.808594 478.851562 C 649.28125 476.605469 650.476562 474.148438 651.320312 471.550781 C 653.074219 466.210938 654.410156 460.734375 654.480469 455.042969 C 654.480469 454.199219 654.480469 453.359375 654.410156 452.515625 C 654.339844 451.882812 653.988281 451.320312 653.355469 451.109375 C 652.722656 450.898438 652.089844 451.039062 651.671875 451.601562 C 651.179688 452.164062 650.757812 452.726562 650.335938 453.359375 C 647.175781 457.851562 643.59375 462.136719 639.941406 466.28125 C 637.34375 469.160156 635.097656 472.25 632.847656 475.410156 C 630.25 479.203125 628.144531 483.277344 626.457031 487.5625 C 626.175781 488.335938 626.175781 489.25 625.195312 489.597656 C 624.492188 488.757812 624.28125 487.773438 623.929688 486.789062 C 621.753906 480.960938 619.925781 474.992188 618.453125 468.878906 C 618.3125 468.386719 618.171875 467.898438 618.101562 467.335938 C 617.960938 466.632812 618.101562 466.140625 618.875 465.859375 C 619.15625 465.789062 619.4375 465.578125 619.714844 465.507812 C 626.175781 463.050781 631.515625 459.046875 635.9375 453.636719 C 638.75 450.195312 641.347656 446.542969 643.59375 442.613281 C 646.824219 436.851562 647.738281 430.671875 647.386719 424.210938 C 647.386719 423.789062 647.316406 423.367188 647.175781 423.015625 C 646.824219 421.820312 645.699219 421.1875 644.4375 421.539062 C 643.875 421.75 643.242188 422.03125 642.820312 422.382812 C 641.980469 423.015625 641.207031 423.71875 640.433594 424.421875 C 635.308594 429.617188 630.109375 434.746094 625.265625 440.152344 C 621.824219 443.945312 618.875 448.089844 616.695312 452.726562 C 616.554688 453.078125 616.277344 453.429688 616.066406 453.777344 C 615.152344 453.636719 615.222656 452.867188 615.152344 452.375 C 614.449219 447.105469 613.746094 441.839844 613.183594 436.570312 C 612.765625 432.425781 612.625 428.285156 612.414062 424.070312 C 612.414062 423.578125 612.414062 423.015625 612.414062 422.523438 C 612.414062 421.679688 612.695312 421.1875 613.605469 420.980469 C 616.347656 420.417969 618.945312 419.292969 621.613281 418.449219 C 628.003906 416.414062 633.058594 412.691406 637.273438 407.5625 C 643.242188 400.328125 646.753906 391.972656 648.578125 382.839844 C 648.648438 382.347656 648.71875 381.785156 648.789062 381.296875 C 648.789062 379.539062 647.738281 378.625 645.910156 379.046875 C 645.140625 379.257812 644.296875 379.539062 643.59375 379.960938 C 641.136719 381.15625 638.890625 382.699219 636.851562 384.386719 C 628.847656 390.988281 621.542969 398.152344 614.871094 406.089844 C 614.308594 406.722656 613.816406 407.351562 613.253906 407.984375 C 613.117188 408.195312 612.90625 408.265625 612.695312 408.054688 C 612.554688 407.914062 612.414062 407.773438 612.414062 407.5625 C 612.34375 407.28125 612.34375 406.929688 612.414062 406.652344 C 612.484375 401.3125 612.90625 396.042969 613.464844 390.777344 C 613.675781 388.53125 613.957031 386.210938 614.308594 383.964844 C 614.519531 382.699219 614.730469 382.488281 615.855469 382.417969 C 616.90625 382.277344 617.960938 382.277344 618.945312 382.207031 C 623.015625 382.066406 626.667969 380.734375 629.96875 378.414062 C 634.816406 374.972656 638.679688 370.761719 640.785156 365 C 641.699219 362.472656 642.820312 359.945312 643.382812 357.34375 C 643.59375 356.429688 643.734375 355.519531 643.804688 354.605469 C 643.804688 353.269531 642.75 352.5 641.417969 352.917969 C 640.503906 353.199219 639.730469 353.621094 638.886719 354.113281 C 633.269531 357.34375 628.144531 361.277344 623.296875 365.5625 C 621.050781 367.527344 618.804688 369.566406 616.90625 371.671875 C 616.207031 371.53125 616.277344 371.25 616.347656 370.96875 C 617.539062 364.929688 619.015625 358.960938 620.910156 353.128906 C 621.121094 352.570312 621.261719 351.9375 621.542969 351.375 C 621.753906 350.8125 622.175781 350.53125 622.738281 350.671875 C 626.316406 351.515625 629.757812 350.671875 633.199219 349.898438 C 639.097656 348.636719 644.859375 346.738281 650.265625 344 C 655.109375 341.542969 659.042969 338.101562 661.78125 333.394531 C 663.328125 330.796875 664.871094 328.195312 666.488281 325.667969 C 667.191406 324.472656 668.03125 323.28125 666.910156 321.945312 C 665.925781 320.75 664.660156 321.101562 663.46875 321.382812 C 654.480469 323.351562 645.980469 326.792969 637.90625 331.285156 C 634.253906 333.324219 630.671875 335.429688 627.230469 337.75 C 626.667969 337.257812 626.949219 336.835938 627.160156 336.34375 C 628.988281 332.128906 631.09375 328.054688 633.480469 324.191406 C 635.308594 321.3125 638.046875 319.347656 641.136719 318.011719 C 645.210938 316.257812 648.789062 313.796875 652.230469 311.128906 C 654.761719 309.234375 657.007812 307.125 659.042969 304.738281 C 666.136719 296.589844 671.964844 287.601562 676.109375 277.625 C 676.671875 276.292969 677.09375 274.886719 677.511719 273.484375 C 677.652344 272.992188 677.652344 272.429688 677.582031 271.9375 C 677.511719 271.09375 676.671875 270.460938 675.828125 270.53125 C 675.40625 270.601562 674.984375 270.742188 674.632812 270.8125 C 672.316406 271.445312 670.070312 272.359375 667.960938 273.484375 C 661.222656 277.203125 654.621094 281.207031 648.648438 286.125 C 644.4375 289.566406 640.925781 293.710938 637.765625 298.136719 C 634.324219 302.980469 632.429688 308.460938 631.65625 314.359375 C 631.375 316.398438 631.164062 318.503906 630.953125 320.539062 C 630.8125 321.664062 630.601562 322.789062 629.828125 323.773438 C 626.738281 327.84375 624.28125 332.339844 622.035156 336.90625 C 621.894531 337.1875 621.683594 337.46875 621.542969 337.679688 C 620.628906 337.46875 620.980469 336.695312 620.980469 336.203125 C 620.910156 331.285156 620.558594 326.441406 619.996094 321.59375 C 619.296875 315.90625 617.820312 310.355469 615.714844 305.019531 C 614.097656 300.875 612.34375 296.730469 610.726562 292.585938 C 609.886719 290.480469 609.886719 290.480469 611.640625 288.863281 C 628.988281 273.0625 648.789062 261.472656 671.613281 255.503906 C 684.253906 252.199219 697.105469 250.375 710.167969 250.164062 C 736.152344 249.671875 760.734375 255.363281 784.046875 266.738281 C 787.980469 268.707031 791.632812 271.09375 795.003906 273.902344 C 797.320312 275.800781 796.898438 275.660156 795.847656 277.695312 C 794.019531 281.207031 792.476562 284.859375 791.140625 288.582031 C 790.4375 290.550781 790.4375 290.550781 788.261719 290.550781 C 787.769531 290.550781 787.207031 290.550781 786.71875 290.550781 C 782.503906 290.339844 778.851562 291.742188 775.902344 294.554688 C 774.496094 295.886719 773.023438 296.378906 771.195312 296.449219 C 767.054688 296.519531 762.839844 296.730469 758.695312 296.871094 C 747.953125 297.292969 737.277344 297.574219 726.53125 298.277344 C 719.4375 298.699219 712.347656 298.769531 705.324219 298.976562 C 698.230469 299.1875 691.207031 299.679688 684.113281 300.3125 C 681.09375 300.59375 678.074219 300.875 675.125 301.226562 C 673.863281 301.367188 672.667969 301.578125 671.472656 301.929688 C 669.789062 302.417969 669.15625 303.261719 669.296875 304.878906 C 670.140625 312.746094 670 320.679688 670.84375 328.546875 C 671.613281 335.570312 672.175781 342.664062 672.808594 349.6875 C 672.949219 350.953125 672.738281 351.164062 671.542969 351.375 C 668.945312 351.726562 666.347656 352.007812 663.820312 352.359375 C 660.097656 352.847656 656.375 353.269531 652.652344 353.761719 C 652.230469 353.832031 651.808594 353.902344 651.460938 353.972656 C 649.984375 354.394531 649.421875 355.167969 649.351562 356.640625 C 649.351562 357.0625 649.351562 357.484375 649.421875 357.90625 C 650.125 365.5625 650.828125 373.21875 651.53125 380.945312 C 652.019531 386.632812 652.511719 392.324219 653.003906 398.082031 C 653.777344 406.511719 654.480469 414.867188 655.25 423.296875 C 655.742188 428.914062 656.234375 434.535156 656.726562 440.082031 C 657.5 448.511719 658.269531 456.871094 658.972656 465.296875 C 659.675781 472.882812 660.378906 480.46875 661.082031 487.984375 C 661.851562 496.203125 662.625 504.347656 663.398438 512.566406 C 664.101562 519.941406 664.800781 527.316406 665.503906 534.621094 C 665.574219 535.464844 665.574219 536.308594 665.785156 537.078125 C 666.066406 538.203125 666.769531 538.90625 667.960938 538.976562 C 669.71875 539.046875 671.542969 539.257812 673.230469 539.117188 C 679.621094 538.484375 686.082031 537.78125 692.472656 537.078125 C 698.792969 536.375 705.113281 535.675781 711.433594 534.902344 C 719.367188 533.988281 727.375 533.003906 735.308594 532.023438 C 744.160156 530.898438 753.078125 529.773438 761.925781 528.652344 C 767.472656 527.949219 773.09375 527.175781 778.640625 526.472656 C 780.117188 526.261719 781.519531 526.261719 782.996094 525.980469 C 785.03125 525.628906 785.59375 524.71875 785.382812 522.679688 C 785.242188 520.503906 785.101562 518.328125 784.960938 516.148438 C 784.679688 512.917969 784.328125 509.757812 784.046875 506.527344 C 783.765625 503.226562 783.417969 499.855469 783.136719 496.554688 C 782.925781 494.09375 782.644531 491.566406 782.433594 489.109375 C 782.363281 488.476562 782.292969 487.84375 782.292969 487.210938 C 782.292969 486.296875 782.574219 485.878906 783.554688 485.738281 C 785.101562 485.527344 786.648438 485.316406 788.191406 485.105469 C 791.914062 484.613281 795.636719 484.121094 799.359375 483.699219 C 802.867188 483.277344 803.21875 482.925781 802.867188 479.34375 C 802.238281 473.234375 801.605469 467.125 800.761719 461.011719 C 800.128906 456.449219 799.847656 451.882812 799.359375 447.316406 C 798.585938 440.292969 797.8125 433.269531 797.109375 426.175781 C 796.40625 419.433594 795.707031 412.691406 795.003906 405.949219 C 794.230469 398.714844 793.457031 391.480469 792.757812 384.175781 C 792.054688 377.363281 791.351562 370.480469 790.648438 363.664062 C 789.878906 356.011719 789.105469 348.355469 788.402344 340.628906 C 788.050781 336.765625 787.769531 332.972656 787.417969 329.109375 C 787.347656 328.476562 787.207031 327.84375 787.699219 327.144531 C 788.402344 327.773438 788.542969 328.335938 788.753906 328.898438 C 792.96875 341.402344 796.898438 354.042969 799.917969 366.96875 C 801.253906 372.867188 802.378906 378.765625 803.921875 384.667969 C 808.066406 400.679688 815.019531 415.359375 824.78125 428.703125 C 834.050781 441.347656 844.375 453.078125 856.101562 463.472656 C 856.59375 463.894531 857.015625 464.316406 857.503906 464.734375 C 858.347656 465.15625 858.488281 465.929688 858.066406 466.914062 Z M 611.289062 463.121094 C 611.148438 463.261719 610.9375 463.332031 610.726562 463.261719 C 610.234375 463.121094 609.746094 462.910156 609.324219 462.628906 C 595.769531 455.605469 586.007812 445.070312 580.179688 430.953125 C 579.6875 429.757812 579.054688 428.5625 579.125 427.160156 C 579.757812 426.878906 580.179688 427.230469 580.601562 427.511719 C 584.320312 429.617188 587.691406 432.214844 590.921875 435.027344 C 594.574219 438.257812 598.015625 441.769531 601.246094 445.421875 C 605.742188 450.476562 608.902344 456.308594 611.359375 462.488281 C 611.429688 462.699219 611.429688 462.980469 611.289062 463.121094 Z M 603.773438 375.816406 C 602.511719 374.902344 601.246094 374.0625 599.914062 373.148438 C 595.769531 370.480469 592.75 366.898438 590.78125 362.402344 C 587.691406 355.449219 585.585938 348.214844 584.601562 340.628906 C 584.601562 340.558594 584.671875 340.417969 584.671875 340.347656 C 585.304688 340.277344 585.515625 340.769531 585.867188 341.191406 C 592.046875 348.566406 597.382812 356.429688 601.597656 365.070312 C 602.933594 367.878906 604.476562 370.621094 605.882812 373.359375 C 606.585938 374.761719 607.285156 376.097656 607.988281 377.503906 C 608.269531 378.0625 605.25 376.871094 603.773438 375.816406 Z M 607.425781 418.800781 C 606.863281 419.433594 606.304688 419.082031 605.882812 418.871094 C 601.527344 416.90625 597.242188 414.796875 593.242188 412.128906 C 590.292969 410.164062 587.761719 407.703125 585.726562 404.753906 C 579.96875 396.605469 575.824219 387.6875 573.296875 378.0625 C 573.15625 377.574219 572.945312 377.082031 573.507812 376.589844 C 573.789062 376.730469 574.070312 376.800781 574.28125 377.011719 C 578 380.804688 582.144531 384.105469 586.148438 387.617188 C 593.804688 394.359375 599.84375 402.367188 604.6875 411.285156 C 605.953125 413.746094 607.003906 416.203125 607.425781 418.800781 Z M 617.75 458.90625 C 619.714844 454.058594 622.386719 449.566406 625.757812 445.632812 C 631.023438 439.449219 636.851562 433.761719 642.46875 428.003906 C 642.75 427.722656 643.03125 427.371094 643.664062 427.511719 C 644.4375 430.460938 644.226562 433.339844 643.453125 436.289062 C 642.679688 439.03125 641.488281 441.558594 640.011719 443.945312 C 637.554688 447.949219 634.746094 451.671875 631.375 454.972656 C 627.933594 458.414062 623.859375 460.871094 619.226562 462.277344 C 618.804688 462.417969 618.453125 462.488281 618.03125 462.558594 C 617.539062 462.628906 617.046875 462.136719 617.046875 461.644531 C 616.90625 460.59375 617.398438 459.75 617.75 458.90625 Z M 622.386719 495.5 C 622.457031 495.570312 622.457031 495.710938 622.457031 495.78125 C 622.316406 495.921875 622.175781 496.203125 622.035156 496.203125 C 616.417969 495.851562 610.796875 495.921875 605.25 494.515625 C 599.351562 493.042969 594.644531 489.738281 591.132812 484.824219 C 587.972656 480.398438 585.65625 475.550781 583.339844 470.425781 C 584.183594 470.285156 584.53125 470.566406 584.882812 470.777344 C 591.90625 474.992188 599 479.203125 606.023438 483.488281 C 607.425781 484.332031 608.832031 485.316406 610.164062 486.296875 C 613.605469 488.828125 616.976562 491.425781 620.417969 493.953125 C 621.121094 494.375 621.753906 494.9375 622.386719 495.5 Z M 627.230469 492.621094 C 627.371094 491.988281 627.511719 491.425781 627.652344 490.792969 C 629.058594 486.789062 630.742188 482.855469 633.128906 479.273438 C 635.9375 475.132812 638.890625 471.128906 642.257812 467.40625 C 645.070312 464.316406 647.738281 461.152344 650.265625 457.851562 C 650.476562 457.5 650.828125 457.21875 651.601562 456.378906 C 651.671875 458.835938 651.460938 460.523438 651.179688 462.277344 C 649.632812 471.128906 645.488281 478.714844 639.589844 485.316406 C 636.429688 488.898438 632.289062 491.074219 628.074219 493.113281 C 627.582031 493.460938 627.089844 493.113281 627.230469 492.621094 Z M 612.625 416.34375 C 612.90625 415.640625 613.1875 415.007812 613.605469 414.375 C 614.660156 412.480469 616.066406 410.722656 617.46875 409.109375 C 623.929688 401.664062 631.023438 394.710938 638.539062 388.320312 C 640.011719 387.054688 641.699219 385.929688 643.3125 384.808594 C 643.664062 384.597656 644.085938 384.316406 644.4375 384.667969 C 644.648438 384.878906 644.578125 385.226562 644.648438 385.4375 C 644.578125 385.929688 644.507812 386.351562 644.367188 386.773438 C 642.398438 393.867188 639.308594 400.398438 634.535156 406.089844 C 630.8125 410.511719 626.386719 413.746094 620.769531 415.289062 C 618.382812 415.921875 615.996094 416.765625 613.605469 417.398438 C 612.835938 417.675781 612.273438 417.046875 612.625 416.34375 Z M 624.773438 343.789062 C 626.457031 342.03125 628.285156 340.488281 630.390625 339.363281 C 639.519531 334.308594 648.859375 329.8125 658.832031 326.792969 C 659.394531 326.582031 660.027344 326.441406 660.660156 326.371094 C 660.871094 326.300781 661.011719 326.441406 661.222656 326.441406 C 661.570312 326.863281 661.292969 327.214844 661.082031 327.566406 C 659.957031 329.460938 658.832031 331.285156 657.710938 333.183594 C 656.023438 335.851562 653.707031 337.960938 651.039062 339.644531 C 644.226562 343.859375 636.78125 346.386719 628.847656 347.582031 C 626.949219 347.863281 625.125 347.722656 623.367188 346.878906 C 623.15625 345.476562 623.929688 344.632812 624.773438 343.789062 Z M 635.027344 313.445312 C 636.078125 307.476562 638.679688 302.210938 642.46875 297.503906 C 645.839844 293.289062 649.632812 289.425781 653.988281 286.125 C 658.203125 282.894531 662.554688 279.875 667.050781 277.066406 C 667.402344 276.855469 667.753906 276.574219 668.101562 276.433594 C 669.929688 275.660156 671.472656 273.972656 673.722656 274.324219 C 673.722656 276.363281 672.457031 278.046875 671.613281 279.734375 C 667.542969 288.019531 662.414062 295.535156 656.234375 302.351562 C 651.878906 307.195312 646.613281 310.917969 640.785156 313.867188 C 639.097656 314.710938 637.484375 315.625 635.9375 316.679688 C 635.519531 316.957031 635.167969 317.378906 634.535156 317.167969 C 634.253906 315.835938 634.816406 314.640625 635.027344 313.445312 Z M 810.382812 351.09375 C 812.5625 359.242188 814.949219 367.316406 817.195312 375.464844 C 818.320312 379.539062 819.441406 383.683594 820.636719 387.757812 C 823.234375 396.605469 827.308594 404.824219 833.066406 412.058594 C 841.214844 422.3125 850.414062 431.445312 860.945312 439.171875 C 863.96875 441.347656 866.988281 443.59375 870.007812 445.84375 C 873.867188 448.722656 878.011719 451.109375 882.085938 453.570312 C 885.105469 455.394531 888.125 457.21875 891.144531 458.976562 C 889.742188 461.925781 887.351562 464.945312 880.890625 472.039062 C 880.539062 471.898438 880.1875 471.757812 879.839844 471.550781 C 877.097656 469.792969 874.359375 468.105469 871.691406 466.28125 C 869.9375 465.15625 868.390625 463.683594 866.636719 462.628906 C 865.371094 461.855469 865.019531 460.453125 864.039062 459.609375 C 862.984375 458.765625 861.507812 459.046875 860.386719 457.992188 C 856.945312 454.761719 853.363281 451.8125 850.132812 448.371094 C 840.652344 438.257812 831.941406 427.511719 824.710938 415.640625 C 818.601562 405.667969 814.035156 394.992188 810.734375 383.683594 C 808.769531 376.871094 807.433594 369.917969 805.820312 363.035156 C 803.078125 351.445312 799.359375 340.207031 795.003906 329.179688 C 794.230469 327.285156 793.179688 325.457031 792.265625 323.5625 C 791.773438 322.648438 791.84375 322.4375 792.6875 321.734375 C 793.316406 321.242188 794.019531 320.75 794.792969 320.121094 C 797.882812 322.929688 800.058594 326.089844 801.886719 329.53125 C 805.398438 336.554688 808.417969 343.578125 810.382812 351.09375 Z M 898.308594 369.847656 C 892.691406 368.300781 887 366.96875 881.382812 365.632812 C 870.777344 363.175781 860.945312 358.539062 851.605469 352.988281 C 848.304688 351.023438 845.074219 348.917969 841.914062 346.738281 C 833.769531 341.121094 825.691406 335.429688 817.828125 329.460938 C 813.191406 325.949219 808.277344 322.789062 803.359375 319.699219 C 801.675781 318.644531 799.917969 317.730469 797.742188 317.097656 C 798.304688 315.976562 798.726562 315.273438 799.007812 314.5 C 799.5 313.097656 800.550781 312.675781 801.957031 312.605469 C 804.976562 312.464844 807.996094 312.675781 810.875 313.65625 C 818.179688 316.1875 825.132812 319.417969 831.3125 324.121094 C 832.996094 325.386719 834.613281 326.652344 836.15625 328.054688 C 841.984375 333.183594 848.585938 337.1875 855.1875 341.050781 C 865.441406 347.019531 876.328125 351.164062 887.703125 354.394531 C 891.214844 355.378906 894.585938 356.640625 898.238281 357.132812 C 899.152344 357.273438 899.429688 357.695312 899.429688 358.679688 C 899.363281 361.066406 899.429688 363.457031 899.851562 365.84375 C 899.992188 366.476562 900.0625 367.109375 900.132812 367.667969 C 900.835938 370.550781 900.835938 370.550781 898.308594 369.847656 Z M 778.992188 397.378906 C 779.273438 397.730469 779.203125 398.152344 778.992188 398.574219 C 778.429688 399.488281 777.515625 400.046875 776.464844 400.257812 C 775.832031 400.398438 775.199219 400.46875 774.636719 400.46875 C 770.636719 400.609375 767.542969 402.578125 764.945312 405.527344 C 764.734375 405.738281 764.59375 406.019531 764.382812 406.300781 C 763.542969 407.28125 762.699219 407.492188 761.644531 406.929688 C 760.945312 406.582031 760.242188 406.019531 759.609375 405.457031 C 759.046875 404.894531 758.414062 404.753906 757.644531 404.753906 C 753.921875 405.035156 750.128906 405.105469 746.40625 405.527344 C 739.242188 406.300781 732.152344 407.351562 725.058594 408.125 C 720.421875 408.617188 715.71875 408.757812 711.011719 408.96875 C 710.378906 408.96875 709.746094 408.96875 709.1875 408.757812 C 708.835938 408.6875 708.484375 408.335938 708.414062 407.84375 C 708.34375 407.351562 708.554688 407 708.90625 406.722656 C 709.679688 406.160156 710.589844 405.949219 711.503906 405.808594 C 714.3125 405.386719 717.050781 404.964844 719.859375 404.683594 C 727.445312 403.910156 734.890625 402.71875 742.472656 401.734375 C 746.828125 401.171875 751.183594 400.890625 755.535156 400.960938 C 755.957031 400.960938 756.378906 400.960938 756.800781 401.03125 C 760.3125 401.3125 760.382812 401.382812 762.839844 404.121094 C 764.945312 401.945312 767.195312 400.328125 769.582031 398.785156 C 771.40625 397.660156 773.304688 397.027344 775.480469 397.027344 C 776.394531 397.027344 777.375 396.886719 778.289062 396.886719 C 778.5 396.957031 778.851562 397.167969 778.992188 397.378906 Z M 703.988281 385.296875 C 702.867188 385.226562 701.742188 384.949219 700.617188 384.597656 C 700.195312 384.457031 699.917969 384.105469 699.847656 383.683594 C 699.847656 383.121094 700.195312 382.769531 700.828125 382.628906 C 701.460938 382.558594 702.09375 382.417969 702.65625 382.417969 C 708.484375 382.277344 714.242188 381.226562 719.929688 379.820312 C 722.667969 379.1875 725.410156 378.484375 728.21875 378.203125 C 728.710938 378.132812 729.269531 378.0625 729.761719 378.0625 C 731.800781 377.992188 732.640625 378.695312 732.851562 380.734375 C 732.921875 381.015625 732.851562 381.367188 732.921875 381.644531 C 732.992188 382.417969 732.640625 383.542969 733.414062 383.964844 C 734.398438 384.457031 735.03125 383.402344 735.730469 382.769531 C 735.941406 382.558594 736.222656 382.347656 736.363281 382.066406 C 737.910156 379.609375 740.296875 378.34375 742.964844 377.785156 C 749.566406 376.308594 756.167969 374.761719 762.980469 374.691406 C 766.421875 374.621094 769.863281 374.550781 773.234375 373.992188 C 774.074219 373.851562 774.917969 373.851562 775.691406 374.203125 C 776.464844 374.550781 776.957031 375.464844 776.816406 376.238281 C 776.675781 377.011719 776.253906 377.644531 775.410156 377.785156 C 774.566406 377.925781 773.796875 377.996094 772.953125 377.996094 C 770.214844 377.996094 767.546875 377.996094 764.804688 377.996094 C 759.609375 377.996094 754.414062 378.414062 749.285156 379.328125 C 748.234375 379.539062 747.25 379.539062 746.195312 379.609375 C 742.824219 379.890625 739.945312 380.945312 737.628906 383.542969 C 736.785156 384.457031 735.871094 385.296875 734.75 385.859375 C 733.132812 386.703125 731.660156 386.28125 730.816406 384.667969 C 730.746094 384.457031 730.675781 384.246094 730.605469 384.105469 C 730.253906 383.261719 730.464844 381.996094 729.480469 381.714844 C 728.78125 381.507812 727.867188 381.996094 727.09375 382.136719 C 722.390625 383.050781 717.683594 384.035156 712.976562 384.878906 C 710.027344 385.4375 707.007812 385.4375 703.988281 385.296875 Z M 774.074219 429.96875 C 774.003906 430.671875 773.445312 431.304688 772.671875 431.445312 C 770.914062 431.726562 769.160156 431.9375 767.40625 432.074219 C 765.71875 432.214844 764.105469 432.355469 762.417969 432.496094 C 758.273438 432.847656 754.554688 434.324219 750.902344 436.148438 C 749.636719 436.78125 748.582031 437.835938 747.390625 438.75 C 746.265625 439.660156 745.140625 440.644531 743.949219 441.417969 C 742.332031 442.472656 741.210938 442.191406 740.4375 440.433594 C 740.085938 439.660156 739.804688 438.890625 739.523438 438.117188 C 739.3125 437.554688 739.101562 436.921875 738.890625 436.359375 C 738.472656 435.097656 737.699219 434.535156 736.363281 434.535156 C 733.484375 434.675781 730.535156 434.675781 727.65625 434.816406 C 723.089844 435.027344 718.527344 435.65625 714.03125 436.21875 C 711.855469 436.5 709.679688 436.359375 707.5 436.429688 C 706.796875 436.429688 706.027344 436.359375 705.464844 435.867188 C 705.253906 435.726562 705.183594 435.378906 705.113281 435.097656 C 705.113281 434.957031 705.253906 434.675781 705.394531 434.605469 C 705.957031 434.394531 706.585938 434.183594 707.148438 434.042969 C 711.574219 433.269531 715.929688 432.425781 720.351562 431.726562 C 725.621094 430.882812 730.886719 430.460938 736.222656 430.671875 C 736.855469 430.671875 737.488281 430.742188 738.121094 430.8125 C 739.734375 431.09375 741 431.9375 741.632812 433.550781 C 742.191406 435.027344 742.753906 436.429688 743.386719 438.046875 C 744.863281 437.414062 745.703125 436.5 746.617188 435.65625 C 748.441406 434.042969 750.480469 432.847656 752.65625 431.867188 C 756.871094 429.96875 761.222656 428.84375 765.859375 428.492188 C 767.40625 428.355469 768.949219 428.074219 770.496094 427.933594 C 771.195312 427.863281 771.96875 427.933594 772.671875 428.074219 C 773.585938 428.355469 774.144531 429.195312 774.074219 429.96875 Z M 774.074219 429.96875 "/></g></g></svg>