<svg xmlns="http://www.w3.org/2000/svg" xmlns:xlink="http://www.w3.org/1999/xlink" width="1920" zoomAndPan="magnify" viewBox="0 0 1440 809.999993" height="1080" preserveAspectRatio="xMidYMid meet" version="1.2"><defs><clipPath id="0d07c9e204"><path d="M 533 243 L 907.238281 243 L 907.238281 567 L 533 567 Z M 533 243 "/></clipPath></defs><g id="85d5da5fb6"><rect x="0" width="1440" y="0" height="809.999993" style="fill:#ffffff;fill-opacity:1;stroke:none;"/><rect x="0" width="1440" y="0" height="809.999993" style="fill:#ffffff;fill-opacity:1;stroke:none;"/><g clip-rule="nonzero" clip-path="url(#0d07c9e204)"><path style=" stroke:none;fill-rule:nonzero;fill:#0f0e0c;fill-opacity:1;" d="M 564.515625 507.972656 C 564.515625 509.6875 563.105469 511.113281 561.378906 511.113281 C 559.65625 511.113281 558.242188 509.6875 558.242188 507.972656 L 558.242188 307.824219 C 558.242188 307.734375 558.191406 307.648438 558.183594 307.546875 L 564.5625 307.546875 C 564.554688 307.648438 564.515625 307.734375 564.515625 307.824219 Z M 589.652344 285.992188 L 589.652344 246.46875 C 589.652344 244.59375 588.132812 243.070312 586.257812 243.070312 C 584.367188 243.070312 582.855469 244.59375 582.855469 246.46875 L 582.855469 285.992188 C 582.855469 294.132812 576.222656 300.753906 568.074219 300.753906 L 564.777344 300.753906 L 564.777344 246.46875 C 564.777344 244.589844 563.253906 243.070312 561.378906 243.070312 C 559.5 243.070312 557.980469 244.589844 557.980469 246.46875 L 557.980469 300.753906 L 554.683594 300.753906 C 546.535156 300.753906 539.898438 294.132812 539.898438 285.988281 L 539.898438 246.46875 C 539.898438 244.589844 538.378906 243.070312 536.5 243.070312 C 534.625 243.070312 533.101562 244.589844 533.101562 246.46875 L 533.101562 285.988281 C 533.101562 296.808594 541.128906 305.773438 551.546875 307.296875 C 551.515625 307.476562 551.445312 307.636719 551.445312 307.824219 L 551.445312 507.972656 C 551.445312 513.449219 555.898438 517.886719 561.378906 517.886719 C 566.855469 517.886719 571.3125 513.449219 571.3125 507.972656 L 571.3125 307.824219 C 571.3125 307.636719 571.242188 307.476562 571.210938 307.296875 C 581.621094 305.773438 589.652344 296.808594 589.652344 285.988281 Z M 895.15625 511.191406 L 895.15625 405.324219 L 900.324219 405.324219 L 900.324219 511.191406 Z M 882.558594 291.730469 C 886.921875 277.820312 892.507812 264.140625 899.207031 251.082031 C 899.363281 250.777344 899.46875 250.453125 899.519531 250.117188 C 899.570312 249.894531 899.597656 249.753906 899.960938 249.792969 C 900.324219 249.824219 900.324219 249.964844 900.324219 250.199219 L 900.324219 398.53125 L 872.324219 398.53125 C 868.457031 361.765625 871.910156 325.851562 882.558594 291.730469 Z M 900.558594 243.019531 C 896.894531 242.6875 893.832031 244.9375 892.949219 248.375 C 886.167969 261.65625 880.507812 275.570312 876.066406 289.703125 C 864.84375 325.671875 861.417969 363.558594 865.882812 402.316406 C 866.089844 404.027344 867.546875 405.324219 869.285156 405.324219 L 888.378906 405.324219 L 888.378906 514.566406 C 888.378906 516.460938 889.882812 517.96875 891.78125 517.96875 L 903.726562 517.96875 C 905.597656 517.96875 907.128906 516.460938 907.128906 514.566406 L 907.128906 250.191406 C 907.128906 246.378906 904.351562 243.355469 900.558594 243.023438 Z M 718.414062 274.320312 C 776.996094 274.320312 824.636719 321.945312 824.636719 380.484375 C 824.636719 439.03125 776.996094 486.652344 718.414062 486.652344 C 659.84375 486.652344 612.1875 439.03125 612.1875 380.484375 C 612.1875 321.945312 659.84375 274.320312 718.414062 274.320312 Z M 718.414062 493.445312 C 780.742188 493.445312 831.441406 442.769531 831.441406 380.484375 C 831.441406 318.195312 780.742188 267.515625 718.414062 267.515625 C 656.089844 267.515625 605.378906 318.195312 605.378906 380.484375 C 605.378906 442.769531 656.089844 493.445312 718.414062 493.445312 Z M 753.011719 542.316406 L 744.113281 536.863281 L 705.773438 513.292969 C 709.933594 513.710938 714.152344 513.917969 718.414062 513.917969 C 745.871094 513.917969 771.417969 505.585938 792.664062 491.320312 Z M 718.4375 558.796875 L 660.023438 500.457031 C 668.863281 504.753906 678.257812 508.101562 688.046875 510.386719 L 736.878906 540.394531 Z M 718.414062 253.851562 C 788.28125 253.851562 845.132812 310.660156 845.132812 380.484375 C 845.132812 450.3125 788.28125 507.117188 718.414062 507.117188 C 687.339844 507.117188 658.847656 495.859375 636.78125 477.222656 L 621.652344 462.117188 C 602.984375 440.0625 591.703125 411.570312 591.703125 380.484375 C 591.703125 310.660156 648.550781 253.851562 718.414062 253.851562 Z M 718.414062 247.058594 C 644.796875 247.058594 584.902344 306.910156 584.902344 380.484375 C 584.902344 412.597656 596.320312 442.082031 615.292969 465.128906 C 615.40625 465.34375 615.535156 465.527344 615.6875 465.699219 C 615.769531 465.789062 615.832031 465.878906 615.910156 465.964844 C 616 466.0625 616.101562 466.175781 616.132812 466.203125 L 616.652344 466.722656 C 621.390625 472.300781 626.582031 477.492188 632.164062 482.214844 L 716.03125 566.015625 C 716.691406 566.664062 717.5625 567.003906 718.4375 567.003906 C 719.300781 567.003906 720.171875 566.664062 720.839844 566.015625 L 742.835938 544.054688 L 752.050781 549.714844 C 753.53125 550.621094 755.449219 550.285156 756.515625 548.910156 L 821.289062 465.578125 C 821.363281 465.476562 821.390625 465.351562 821.441406 465.25 C 840.480469 442.183594 851.9375 412.648438 851.9375 380.484375 C 851.9375 306.910156 792.035156 247.058594 718.414062 247.058594 "/></g></g></svg>