<?xml version="1.0" encoding="UTF-8"?><svg id="Layer_1" xmlns="http://www.w3.org/2000/svg" xmlns:xlink="http://www.w3.org/1999/xlink" viewBox="0 0 69.03 71"><defs><style>.cls-1{fill:none;}.cls-2{clip-path:url(#clippath-1);}.cls-3{fill:#231f20;}.cls-4{clip-path:url(#clippath-3);}.cls-5{clip-path:url(#clippath-2);}.cls-6{clip-path:url(#clippath);}</style><clipPath id="clippath"><rect class="cls-1" x="24.93" y="63.98" width="18.67" height="7.02"/></clipPath><clipPath id="clippath-1"><rect class="cls-1" x="31.59" width="4" height="11.98"/></clipPath><clipPath id="clippath-2"><rect class="cls-1" y="34.65" width="11.59" height="2.67"/></clipPath><clipPath id="clippath-3"><rect class="cls-1" x="58.26" y="31.98" width="10.74" height="2.67"/></clipPath></defs><path class="cls-3" d="M42.28,63.14h-15.51c-.34,0-.63-.28-.63-.62v-.61c0-.34.28-.63.63-.63h15.51c.35,0,.63.28.63.63v.61c0,.34-.28.62-.63.62"/><path class="cls-3" d="M42.28,59.28h-15.51c-.34,0-.63-.28-.63-.63v-.61c0-.34.28-.63.63-.63h15.51c.35,0,.63.28.63.63v.61c0,.34-.28.63-.63.63"/><g class="cls-6"><path class="cls-3" d="M43.11,65.2c.09,0,.14.09.1.17-1.63,3.14-4.91,5.29-8.7,5.29s-7.07-2.15-8.69-5.29c-.04-.08.02-.17.1-.17h17.19"/></g><path class="cls-3" d="M37.83,52.28c1.01,0,2.33,0,3.67,0h.01c.32,0,.78-.06,1.16-.55.61-.77,1.23-1.55,1.84-2.3,1.08-1.34,2.19-2.72,3.24-4.12,4.01-5.37,4.71-11.13,2.09-17.11-2.71-6.2-8.56-10.05-15.27-10.05-3.64,0-7.14,1.17-10.14,3.38-7.15,5.25-8.86,15.78-3.74,22.99,1.15,1.61,2.4,3.17,3.62,4.67.7.86,1.42,1.74,2.1,2.63.36.47.83.47,1.09.47h10.33ZM43.22,54.85c-1.66-.01-3.29-.02-4.52-.02-.69,0-1.38,0-2.07,0h-4.15c-.69,0-1.38,0-2.06,0-1.26,0-2.92,0-4.59.01h0c-.22,0-.28-.04-.39-.17-1.12-1.42-2.27-2.86-3.38-4.25-.88-1.1-1.78-2.23-2.66-3.35-1.09-1.38-1.98-2.87-2.66-4.44-.65-1.51-1.1-3.09-1.34-4.72-.47-3.13-.15-6.38.92-9.39,1.07-3.03,2.89-5.76,5.23-7.89,1.22-1.1,2.58-2.05,4.04-2.81,1.52-.79,3.17-1.39,4.89-1.77,1.32-.29,2.67-.44,4.03-.44,4.29,0,8.55,1.49,12,4.2,1.71,1.35,3.17,2.95,4.33,4.76,1.2,1.88,2.05,3.93,2.52,6.09.67,3.05.68,5.99.04,8.74-.64,2.76-1.95,5.39-3.9,7.84l-1.92,2.42c-1.29,1.63-2.63,3.3-3.93,4.96-.15.19-.23.22-.42.22h0"/><path class="cls-3" d="M45.32,36.31c0,.78-.64,1.42-1.42,1.42h-.2c-.3,0-.54.24-.54.54v1.28c0,1.08-.88,1.96-1.96,1.96v-.02h-1.96c-.41,0-.74.33-.74.74s.33.74.74.74h.77c.19,0,.32.19.25.36-.44,1.14-1.55,1.96-2.84,1.96-.49,0-.89-.4-.89-.89v-18.36c0-.48.4-.88.89-.88,1.2,0,2.24.7,2.73,1.71.13.27-.06.59-.36.59h-.55c-.41,0-.74.33-.74.74s.33.74.74.74h1.77c1.19,0,2.15.96,2.15,2.15,0,.1-.08.19-.19.19h-1.14c-1.05,0-1.91.85-1.91,1.91v1.33c0,.41.33.74.74.74s.74-.33.74-.74v-.76c0-.55.45-1,.99-1h1.78v-.02c.66.13,1.15.7,1.15,1.4v2.16ZM44.64,31.34v-.44c0-1.66-1.18-3.05-2.75-3.37-.32-2.18-2.2-3.85-4.47-3.85-1.31,0-2.36,1.06-2.36,2.36v18.36c0,1.31,1.05,2.36,2.36,2.36,2.27,0,4.15-1.68,4.47-3.85,1.57-.32,2.75-1.71,2.75-3.37v-.44c1.24-.33,2.16-1.46,2.16-2.8v-2.16c0-1.34-.92-2.48-2.16-2.8"/><path class="cls-3" d="M23.72,34.15c0-.69.49-1.27,1.15-1.4v.02h1.78c.55,0,.99.45.99,1v.76c0,.41.33.74.74.74s.74-.33.74-.74v-1.33c0-1.06-.85-1.91-1.91-1.91h-1.14c-.11,0-.19-.09-.19-.19,0-1.19.96-2.15,2.15-2.15h1.77c.41,0,.74-.33.74-.74s-.33-.74-.74-.74h-.55c-.3,0-.49-.32-.36-.59.49-1.01,1.54-1.71,2.73-1.71.49,0,.89.4.89.88v18.36c0,.49-.4.89-.89.89-1.29,0-2.4-.82-2.84-1.96-.07-.17.06-.36.25-.36h.77c.41,0,.74-.33.74-.74s-.33-.74-.74-.74h-1.96v.02c-1.08,0-1.96-.88-1.96-1.96v-1.28c0-.3-.24-.54-.54-.54h-.2c-.79,0-1.42-.64-1.42-1.42v-2.16ZM22.24,34.15v2.16c0,1.34.92,2.47,2.16,2.8v.44c0,1.66,1.18,3.05,2.75,3.37.33,2.18,2.21,3.85,4.47,3.85,1.31,0,2.36-1.06,2.36-2.36v-18.36c0-1.3-1.06-2.36-2.36-2.36-2.26,0-4.14,1.68-4.47,3.85-1.57.32-2.75,1.71-2.75,3.37v.44c-1.24.32-2.16,1.46-2.16,2.8"/><g class="cls-2"><path class="cls-3" d="M33.27,10.82c-.62,0-1.12-.5-1.12-1.11V1.24c0-.62.5-1.12,1.12-1.12s1.12.5,1.12,1.12v8.46c0,.61-.5,1.11-1.12,1.11"/></g><path class="cls-3" d="M20.98,14.79c-.4,0-.77-.21-.97-.56l-4.23-7.33c-.31-.54-.13-1.22.41-1.53.17-.1.36-.15.56-.15.4,0,.77.21.97.56l4.23,7.33c.31.54.13,1.22-.41,1.53-.17.1-.36.15-.56.15"/><path class="cls-3" d="M12.31,24.36c-.19,0-.39-.05-.56-.15l-7.33-4.23c-.54-.31-.72-.99-.41-1.53.2-.34.57-.56.97-.56.19,0,.39.05.56.15l7.33,4.23c.26.15.45.39.52.68.08.29.04.59-.11.85-.2.34-.57.56-.97.56"/><g class="cls-5"><path class="cls-3" d="M1.13,36.99c-.61,0-1.11-.5-1.11-1.12s.5-1.12,1.11-1.12h8.46c.62,0,1.13.51,1.13,1.12s-.51,1.12-1.13,1.12H1.13"/></g><g class="cls-4"><path class="cls-3" d="M59.44,34.53c-.61,0-1.11-.51-1.11-1.13s.5-1.11,1.11-1.11h8.47c.61,0,1.11.5,1.11,1.11s-.5,1.13-1.11,1.13h-8.47"/></g><path class="cls-3" d="M55.48,22.2c-.4,0-.77-.21-.97-.56-.31-.54-.13-1.22.41-1.53l7.33-4.23c.17-.1.36-.15.56-.15.4,0,.78.21.97.56.15.26.19.56.11.85-.08.29-.26.53-.52.68l-7.33,4.23c-.17.1-.36.15-.56.15"/><path class="cls-3" d="M45.9,13.54c-.19,0-.39-.05-.56-.15-.53-.31-.72-.99-.41-1.53l4.23-7.33c.2-.34.57-.56.97-.56.19,0,.39.05.56.15.54.31.72.99.41,1.53l-4.23,7.33c-.2.34-.57.56-.97.56"/></svg>