<?xml version="1.0" encoding="UTF-8"?>
<svg id="Layer_1" xmlns="http://www.w3.org/2000/svg" version="1.1" viewBox="0 0 74.4 72">
  <!-- Generator: Adobe Illustrator 29.5.1, SVG Export Plug-In . SVG Version: 2.1.0 Build 141)  -->
  <path d="M28.2,44.8v2.4c4.1-1.1,6.7,1.1,6.2,5.3s-.5.7-.4,1.1,2.1,2.1,2.1,3.2v4.3h-1.8v-4.1c0-.4-1-1.8-1.5-1.9s-2,.6-3.1.5-1.8-1.2-2.9.3-.7,1.3-.7,1.4v3.8h-1.8v-3.8c0-.9,1.2-3.5,2.4-3.5l-.8-2.3h-4.1s-.7,2-.7,2c.6.6,2,2.3,2,3.1v4.3h-1.8v-4.3c0-.2-1.2-1.6-1.5-1.7-.8.2-1.5.7-2.3.7s-2.2-.7-2.6-.7-1.4,1.4-1.4,1.6v4.3h-1.8v-4.6c0-1,1.7-2.2,1.8-2.7s-.4-1.2-.5-1.8c-.4-2.9,2.1-5.5,5.1-5.1s1.1.6,1.7.5c0-.8.3-1.8-.4-2.4h-4.5l-.4-.4V11.4l.4-.4h44.3l.4.4v33l-.4.4h-30.8ZM57.5,12.6H16.1v30.4h3.4s0-1.8,0-1.8c-1.5.1-2.9-.6-3.1-2.2s-.1-4.1,0-5.2,1.5-3,3-3.3,8.1-.2,9.3.1,2,1.8,2.1,3.1c.2,2.2.7,7.4-2.6,7.2v2.1s29.3,0,29.3,0V12.6ZM18.2,33.6c-.2,1.1,0,3.9,0,5.2s1.3.7,1.3-.3v-4.5l.4-.4c.5-.3,1.4.5,1.4.9v14.8l1.6-.4v-6.4l1.1-.2c.2,0,.7.8.7.9v6.2h1.3s.3-15,.3-15c.4-1.2,1.8-.5,1.8,0v4.6h.8v-5.9c0-.1-.3-.6-.4-.7-.6-.4-7.3-.4-8.3-.2s-1.8.6-2,1.4ZM19.7,51c0-1.4-1.2-2.6-2.6-2.6s-2.6,1.2-2.6,2.6,1.2,2.6,2.6,2.6,2.6-1.2,2.6-2.6ZM32.8,51.2c0-1.4-1.2-2.6-2.6-2.6s-2.6,1.2-2.6,2.6,1.2,2.6,2.6,2.6,2.6-1.2,2.6-2.6Z"/>
  <path d="M51.2,56.4c0-.5.9-1.8,1.2-2.2s.9-.5.9-.6c.2-.2-.4-1-.5-1.4-1-7.5,9.3-7.3,8.6-.5s-.5,1.5-.5,1.8.8.8,1.1,1.2c1.2,1.7.9,4,.9,6h-1.8c0-1.4.2-2.8-.2-4.1-.9-3.1-2.2-1.1-4.1-1.2s-1.6-.5-2.3-.7c-.4,0-1.5,1.7-1.5,1.9v4.1h-1.8c.2-1.3-.2-3.1,0-4.3ZM59.7,51c0-1.4-1.2-2.6-2.6-2.6s-2.6,1.2-2.6,2.6,1.2,2.6,2.6,2.6,2.6-1.2,2.6-2.6Z"/>
  <path d="M38.1,57c.2-1.7,2-3.1,2.1-3.4s-.5-1.3-.5-2.1c-.5-6.4,9.6-6.7,8.6.7s-.5,1.1-.5,1.3,2.1,1.7,2.1,3.2v4.1h-1.8v-4.1c0,0-.6-1.2-.8-1.3-1-1.1-1.8,0-3,.1s-2.6-1.3-3.6,0-.7,1.4-.7,1.4v3.8h-1.8c.1-1.2-.2-2.6,0-3.8ZM46.7,51c0-1.4-1.2-2.6-2.6-2.6s-2.6,1.2-2.6,2.6,1.2,2.6,2.6,2.6,2.6-1.2,2.6-2.6Z"/>
  <path d="M32.9,31.3c.2-1.4,2.7-.7,2.9-.9s-.2-1.2.7-1.5,4-.2,4.7,0c1.2.2,1.2.8,1.2,1.8h2.4c.5.4.5.9.5,1.4.1,1.2,0,9.1-.5,9.7s-.5.3-.7.3l-11.1-.4c.4-3.1-.5-7.4,0-10.3ZM40.5,30.6h-2.9s0,1.6,0,1.6h2.9s0-1.6,0-1.6ZM34.7,32.2v7.9h8.4l.3-7.6h-1c0,.5.2,1.3-.4,1.5-1.9-.3-6.6,1.3-6.1-1.8h-1Z"/>
  <path d="M37.6,15.4c.7.1,2.5-.4,2.8.4.9,2.4,0,7,.8,9.7,0,.6-.3,1-.9,1.2-1.7.3-4.7.4-6.5.5s-4.2.2-4.6-.1l-.3-.5-.5-10.3,2.6-.3c0-.5-.2-1.6.4-1.8s2.4-.3,2.8-.3,2.7-.1,3,.1l.2,1.5ZM35.7,15.7l-2.8.2c-.4,2.4,1.6,1.4,3.1,1.3l-.3-1.5ZM39.1,24.9l-.5-7.5h-.8c0,.5,0,1.4-.7,1.7l-5.6.2-.2-1.5h-1s.6,7.6.6,7.6l8.3-.5Z"/>
  <path d="M53.6,18.8l2.3.6.2.8c-.5,1.3-1.9,9.6-2.5,10s-9.9-2.2-11.4-2.5c-.2-.5-.1-1.1,0-1.7.1-.9,2-8.6,2.3-9s.4-.3.6-.3c1.3,0,2.2,1.5,2.5-.8.5-.4,5.1.6,5.6,1s.3,1.1.4,1.8ZM48.9,17.8l-.4,1.7,2.9.7.4-1.7-2.9-.7ZM46.8,19.1l-1-.3-1.8,7.6,8.4,1.7,1.7-7.2-.9-.3c0,2.3-4.2.9-5.6.4s-1.2-.9-.7-2Z"/>
  <path d="M27.9,25.6c0,2.4-1.9,4.3-4.3,4.3s-4.3-1.9-4.3-4.3,1.9-4.3,4.3-4.3,4.3,1.9,4.3,4.3ZM26.2,25.6c0-1.4-1.1-2.5-2.5-2.5s-2.5,1.1-2.5,2.5,1.1,2.5,2.5,2.5,2.5-1.1,2.5-2.5Z"/>
  <rect x="47.3" y="33" width="8.6" height="1.8"/>
  <rect x="47.3" y="38.2" width="8.6" height="1.6"/>
  <rect x="47.3" y="35.6" width="6" height="1.8"/>
</svg>