<?xml version="1.0" encoding="UTF-8"?><svg id="Layer_1" xmlns="http://www.w3.org/2000/svg" xmlns:xlink="http://www.w3.org/1999/xlink" viewBox="0 0 85 71.93"><defs><style>.cls-1{fill:none;}.cls-2{clip-path:url(#clippath-1);}.cls-3{fill:#231f20;}.cls-4{clip-path:url(#clippath-3);}.cls-5{clip-path:url(#clippath-2);}.cls-6{clip-path:url(#clippath);}</style><clipPath id="clippath"><rect class="cls-1" x="72.06" width="4" height="6.47"/></clipPath><clipPath id="clippath-1"><rect class="cls-1" x="78.79" y="11.3" width="6.21" height="1.8"/></clipPath><clipPath id="clippath-2"><rect class="cls-1" y="19.8" width="8.06" height="2.67"/></clipPath><clipPath id="clippath-3"><rect class="cls-1" x="21.78" y="34.27" width="44.57" height="37.66"/></clipPath></defs><g class="cls-6"><path class="cls-3" d="M74.07,6.22c.49,0,.88-.4.88-.88V.9c0-.48-.39-.88-.88-.88s-.88.4-.88.88v4.44c0,.48.4.88.88.88"/></g><g class="cls-2"><path class="cls-3" d="M84.12,11.33h-4.44c-.48,0-.88.39-.88.88s.4.88.88.88h4.44c.48,0,.88-.4.88-.88s-.4-.88-.88-.88"/></g><path class="cls-3" d="M82.53,4.4c.17-.17.26-.39.26-.63s-.09-.45-.26-.62c-.34-.34-.9-.34-1.24,0l-3.14,3.14c-.17.17-.26.39-.26.63s.09.45.26.62.39.26.63.26.45-.09.62-.26l3.14-3.14"/><path class="cls-3" d="M20.65,30.04l.21-1.23,6.73,1.22-.21,1.19c-.09.53-.42,1-.92,1.31-.53.33-1.18.45-1.84.33l-1.95-.34c-1.32-.23-2.24-1.34-2.04-2.48ZM13.15,25.59l8.06-15.82,15.68,16.1-1.89,3.69-21.85-3.97ZM10.95,25.98c-.08.15-.21.27-.38.32s-.34.04-.49-.04-.27-.21-.32-.38-.04-.33.04-.49L19.11,7.15c.08-.15.21-.27.38-.32.06-.02.13-.03.2-.03.1,0,.2.03.29.07.15.07.27.21.32.37.05.17.04.34-.04.49l-9.3,18.26ZM38.76,26.11c.09-.17.27-.28.46-.28.08,0,.16.02.23.06.13.06.21.17.26.3.05.13.03.27-.03.39l-2.39,4.69c-.06.13-.17.21-.3.26-.13.04-.27.03-.4-.03-.12-.06-.21-.17-.26-.3-.04-.14-.03-.27.03-.4l2.39-4.69ZM24.32,34.61c.26.05.53.07.8.07.82,0,1.61-.22,2.29-.65.93-.58,1.55-1.47,1.72-2.51l.21-1.18,5.2.95c.02.16.05.31.1.45.19.58.59,1.06,1.14,1.34.33.17.68.25,1.04.25.24,0,.48-.04.71-.11.58-.19,1.06-.59,1.33-1.14l2.39-4.69c.57-1.13.12-2.51-1.01-3.08-.73-.38-1.62-.32-2.3.13l-15.94-16.37c.14-.51.1-1.05-.1-1.54-.22-.54-.63-.97-1.14-1.23-1.19-.61-2.65-.14-3.26,1.05l-9.3,18.26c-.29.58-.34,1.23-.14,1.85.2.61.63,1.11,1.2,1.41.34.17.71.26,1.09.26.72,0,1.41-.32,1.87-.88l6.86,1.25-.22,1.25c-.36,2.1,1.2,4.14,3.48,4.54l1.95.34"/><path class="cls-3" d="M2.43,11.21l6.36,3.24c.13.06.27.09.41.09.33,0,.64-.19.79-.48.22-.44.05-.97-.39-1.19l-6.36-3.24c-.44-.22-.97-.05-1.19.39-.11.21-.13.45-.06.68s.23.41.44.52"/><path class="cls-3" d="M12.65,7.62c.16.27.44.42.76.42.16,0,.32-.05.46-.14.42-.26.55-.81.29-1.22l-3.05-4.92c-.26-.42-.81-.55-1.22-.29s-.54.81-.29,1.22l3.06,4.92"/><path class="cls-3" d="M7.59,8.53l1.48,1.24c.16.13.36.2.57.2.27,0,.52-.11.68-.32.32-.38.27-.94-.11-1.26l-1.48-1.23c-.18-.16-.41-.22-.65-.2-.23.02-.45.14-.6.32-.32.38-.27.94.11,1.25"/><g class="cls-5"><path class="cls-3" d="M7.35,20.45c-.17-.16-.4-.23-.64-.22l-5.85.31c-.23.01-.45.11-.61.29C.08,21.01,0,21.23.02,21.47c.03.47.41.84.89.84h.05l5.86-.31c.23-.02.45-.12.61-.29.16-.18.24-.41.23-.65-.02-.23-.12-.45-.3-.61"/></g><path class="cls-3" d="M4.59,15.89c-.23-.05-.47,0-.67.14-.2.13-.33.33-.38.56-.09.48.22.95.7,1.05l1.55.31c.06.01.11.02.17.02.42,0,.79-.3.87-.71.1-.48-.22-.95-.7-1.05l-1.55-.31"/><path class="cls-3" d="M75.24,25.2c0,1.81-1.47,3.28-3.28,3.28h-12.36c-.15,0-.29.04-.42.11l-6.77,3.72-.72-3.15c-.09-.4-.44-.68-.85-.68h-.35c-1.81,0-3.28-1.47-3.28-3.28v-11.97c0-1.8,1.47-3.27,3.28-3.27h21.47c1.81,0,3.28,1.47,3.28,3.27v11.97ZM71.96,8.21h-21.47c-2.77,0-5.02,2.25-5.02,5.02v11.97c0,1.3.49,2.54,1.4,3.48.87.9,2.03,1.44,3.27,1.53l.83,3.61c.06.27.24.49.49.6.11.05.23.08.35.08.15,0,.29-.04.42-.11l7.58-4.17h12.14c2.77,0,5.02-2.25,5.02-5.02v-11.97c0-2.77-2.25-5.02-5.02-5.02"/><path class="cls-3" d="M70.57,13.98l-7.2.1c-.48,0-.87.39-.87.87s.39.88.87.88l7.2-.1c.48,0,.87-.39.87-.87s-.39-.88-.87-.88"/><path class="cls-3" d="M51.89,15.72h8.19c.48,0,.87-.39.87-.87s-.39-.88-.87-.88h-8.19c-.48,0-.88.39-.88.88s.39.87.88.87"/><path class="cls-3" d="M57.52,23.21h-5.63c-.48,0-.88.39-.88.88s.39.87.88.87h5.63c.48,0,.87-.39.87-.87s-.39-.88-.87-.88"/><path class="cls-3" d="M70.57,18.59h-12.37c-.48,0-.88.39-.88.88s.39.87.88.87h12.37c.48,0,.87-.39.87-.87s-.39-.88-.87-.88"/><path class="cls-3" d="M51.89,20.34h3.05c.48,0,.87-.39.87-.87s-.39-.88-.87-.88h-3.05c-.48,0-.88.39-.88.88s.39.87.88.87"/><g class="cls-4"><path class="cls-3" d="M65.45,34.28c-.48,0-.87.39-.87.87v32.63c0,1.33-1.08,2.41-2.41,2.41H25.93c-1.33,0-2.41-1.08-2.41-2.41v-27.6c0-.48-.39-.87-.87-.87s-.88.39-.88.87v27.6c0,2.29,1.86,4.16,4.16,4.16h36.23c2.29,0,4.15-1.86,4.15-4.16v-32.63c0-.48-.39-.87-.87-.87"/></g><path class="cls-3" d="M34.28,15.21h7.04c.48,0,.87-.4.87-.88s-.39-.87-.87-.87h-7.04c-.48,0-.87.39-.87.87s.39.88.87.88"/><path class="cls-3" d="M28.28,64.07c0,.48.39.87.87.87h10.27c.48,0,.87-.39.87-.87v-5.14c0-.48-.39-.87-.87-.87s-.87.39-.87.87v4.27h-8.53v-8.53h7.54c.48,0,.87-.39.87-.87s-.39-.88-.87-.88h-8.41c-.48,0-.87.39-.87.88v10.27"/><path class="cls-3" d="M42.19,53.31c-.01-.23-.11-.45-.28-.61-.35-.33-.91-.31-1.23.04l-6.16,6.57-1.97-1.93c-.17-.17-.39-.26-.62-.25-.23,0-.45.09-.61.26s-.25.39-.25.62c0,.23.1.45.27.61l2.61,2.56c.16.16.38.25.61.25h.02c.23,0,.46-.11.62-.28l6.77-7.23c.16-.17.24-.39.24-.62"/><path class="cls-3" d="M46.44,56.92h11.34c.48,0,.87-.39.87-.87s-.39-.87-.87-.87h-11.34c-.48,0-.87.39-.87.87s.39.87.87.87"/><path class="cls-3" d="M46.44,60.43h4.87c.48,0,.87-.39.87-.87s-.39-.88-.87-.88h-4.87c-.48,0-.87.39-.87.88s.39.87.87.87"/><path class="cls-3" d="M37.56,38.86c.48,0,.87-.39.87-.87s-.39-.88-.87-.88h-8.41c-.48,0-.87.39-.87.88v10.27c0,.48.39.87.87.87h10.27c.48,0,.87-.39.87-.87v-5.14c0-.48-.39-.88-.87-.88s-.87.4-.87.88v4.27h-8.53v-8.53h7.54"/><path class="cls-3" d="M42.19,37.5c-.01-.23-.11-.45-.28-.6-.35-.33-.91-.31-1.23.04l-6.16,6.58-1.97-1.93c-.17-.16-.38-.25-.61-.25h-.01c-.23,0-.45.09-.61.26s-.25.39-.25.62c0,.23.1.45.27.61l2.61,2.56c.16.16.38.25.61.25h.02c.23,0,.46-.11.62-.28l6.77-7.23c.16-.17.24-.39.24-.63"/><path class="cls-3" d="M46.44,41.11h11.34c.48,0,.87-.39.87-.87s-.39-.87-.87-.87h-11.34c-.48,0-.87.39-.87.87s.39.87.87.87"/><path class="cls-3" d="M46.44,44.63h4.87c.48,0,.87-.39.87-.87s-.39-.88-.87-.88h-4.87c-.48,0-.87.39-.87.88s.39.87.87.87"/></svg>