<?xml version="1.0" encoding="UTF-8"?><svg id="Layer_1" xmlns="http://www.w3.org/2000/svg" xmlns:xlink="http://www.w3.org/1999/xlink" viewBox="0 0 62.13 47.74"><defs><style>.cls-1{fill:#231f20;fill-rule:evenodd;}.cls-2{fill:none;}.cls-3{clip-path:url(#clippath);}</style><clipPath id="clippath"><rect class="cls-2" width="62.13" height="47.74"/></clipPath></defs><g class="cls-3"><path class="cls-1" d="M49,41.16c-.01,1.12-.96,1.92-2.12,2.18v.53c0,.52-.42.94-.94.94s-.94-.42-.94-.94v-.51c-.58-.09-1.13-.26-1.58-.46-.46-.21-.68-.78-.46-1.24.21-.47.77-.68,1.23-.46.75.34,1.84.54,2.58.23.27-.12.35-.25.36-.28,0-.01-.09-.15-.36-.28-.6-.26-1.47-.06-2.34-.46-2.27-1.04-1.92-3.62.58-4.2v-.54c0-.52.42-.93.94-.93s.94.42.94.93v.5c.58.09,1.13.27,1.59.48.46.23.66.78.44,1.25s-.78.68-1.25.44c-.7-.33-1.81-.52-2.5-.22,0,0-.01,0-.01.01-.26.1-.34.21-.36.25.02.04.11.18.38.31.29.12.54.13.86.15.4.03.9.07,1.48.3,0,0,.02,0,.03.02.94.42,1.49,1.17,1.49,2.01h-.01ZM20.21,36.58c0,.52-.42.94-.93.94h-6.57c-.52,0-.93-.42-.93-.94s.42-.93.93-.93h6.57c.52,0,.93.42.93.93ZM20.21,42.96c0,.52-.42.94-.93.94h-6.57c-.52,0-.93-.42-.93-.94s.42-.93.93-.93h6.57c.52,0,.93.42.93.93ZM20.21,39.77c0,.52-.42.93-.93.93h-6.57c-.52,0-.93-.42-.93-.93s.42-.94.93-.94h6.57c.52,0,.93.42.93.94ZM10.46,18.96c-1.56,2.55-5.3,2.59-6.91,0-.28-.44-.13-1.02.3-1.29.44-.27,1.02-.13,1.29.31.84,1.35,2.86,1.4,3.72,0,.28-.44.86-.58,1.29-.31.44.27.58.85.31,1.29h.01ZM3.55,14.7c.87-1.41,2.21-2.12,3.59-1.92,1.38.21,2.61.91,3.29,1.87.3.43.2,1.01-.23,1.31-.42.3-1,.2-1.3-.23-.38-.54-1.15-.96-2.02-1.09-.92-.13-1.55.77-1.73,1.05-.27.44-.84.57-1.29.3-.44-.27-.58-.85-.3-1.29h0ZM15.88,9.42c-.36-.37-.34-.96.03-1.32.37-.36.96-.34,1.33.03l1.13,1.19,2.33-2.86c.32-.4.92-.46,1.32-.13.39.32.46.92.13,1.32l-2.99,3.67c-.36.44-1.01.46-1.41.06l-1.88-1.96ZM20.54,26.33h-3.11v-3.1h3.11v3.1ZM21.47,21.35h-4.98c-.52,0-.93.42-.93.93v4.98c0,.52.42.94.93.94h4.98c.52,0,.94-.42.94-.94v-4.98c0-.51-.42-.93-.94-.93ZM30.96,18.54l-1.98-2.77.75-1.33h2.47l.74,1.33s-1.98,2.77-1.98,2.77ZM34.87,15.36l-1.31-2.32c-.17-.29-.48-.48-.82-.48h-3.57c-.34,0-.64.19-.81.48l-1.31,2.32c-.19.32-.17.7.05,1.01l3.1,4.33c.38.53,1.15.52,1.53,0l3.09-4.33c.21-.3.24-.69.05-1.01ZM41.62,7.39c.64-.21.58.47,1.32.47.67,0,.64-.52,1.13-.52.31,0,.56.26.56.56,0,.78-.86,1.84-1.69,2.37-1.05-.68-2.33-2.46-1.32-2.89h0ZM42.56,12.21c.24.11.52.11.76,0,1.53-.68,3.18-2.56,3.18-4.29s-1.9-3-3.55-2.16c-1.55-.81-3.57.27-3.57,2.16,0,1.73,1.64,3.61,3.18,4.29h0ZM42.94,26.12c-.73,0-1.33-.6-1.33-1.35s.6-1.34,1.33-1.34,1.35.6,1.35,1.34-.6,1.35-1.35,1.35ZM42.94,21.57c-1.77,0-3.21,1.44-3.21,3.21s1.44,3.22,3.21,3.22,3.22-1.45,3.22-3.22-1.45-3.21-3.22-3.21ZM54.2,14.01c0-.4.32-.72.72-.72s.72.32.72.72-.32.72-.72.72-.72-.32-.72-.72ZM56.88,20.38h-3.93v-1.8c0-1.09.88-1.97,1.96-1.97s1.96.88,1.96,1.97v1.8ZM52.02,22.25h5.81c.51,0,.94-.42.94-.93v-2.75c0-1.31-.66-2.47-1.66-3.16,1.12-1.73-.13-4-2.18-4s-3.29,2.27-2.18,4c-1.01.7-1.66,1.85-1.66,3.16v2.75c0,.52.42.93.94.93h0ZM31.9,45.88h28.08v-12.22h-28.08s0,12.22,0,12.22ZM1.94,45.88h28.08v-12.22H1.94v12.22ZM1.94,1.88v29.91h10.11V1.88H1.94ZM24.04,1.88h-10.12v14.02h10.12V1.88ZM37.89,31.8h10.11v-14.02h-10.11v14.02ZM13.92,17.77v14.02h10.12v-14.02s-10.12,0-10.12,0ZM25.91,31.8h10.11V1.88h-10.11v29.91h0ZM48,1.88h-10.11v14.02h10.11V1.88ZM59.97,31.8V1.88h-10.11v29.91h10.11ZM61.85.94c0-.52-.42-.93-.94-.93H1.01c-.52,0-.94.42-.94.93v45.88c0,.5.41.94.94.94h59.89c.53,0,.94-.44.94-.94V.94Z"/></g></svg>