<?xml version="1.0" encoding="UTF-8"?>
<svg id="Layer_1" xmlns="http://www.w3.org/2000/svg" version="1.1" viewBox="0 0 93.7 72">
  <!-- Generator: Adobe Illustrator 29.5.1, SVG Export Plug-In . SVG Version: 2.1.0 Build 141)  -->
  <path d="M17.8,13.6h58.2v44.9H17.8V13.6ZM29,15.4h-9.5v28.1h9.5V15.4ZM40.3,15.4h-9.5v13.1h9.5v-13.1ZM51.6,15.4h-9.5v28.1h9.5V15.4ZM62.9,15.4h-9.5v13.1h9.5v-13.1ZM74.1,15.4h-9.5v28.1h9.5V15.4ZM40.3,30.4h-9.5v13.1h9.5v-13.1ZM62.9,30.4h-9.5v13.1h9.5v-13.1ZM19.6,45.2v11.4h26.4v-11.4h-26.4ZM47.7,45.2v11.5h26.4v-11.5h-26.4Z"/>
  <path d="M59.9,49.6c.4.7,1.3.4,2.1.6,1.9.5,2.7,2.7.8,3.8s-.9.3-.9.4c-.2.4.2,1.6-1.2,1.3s-.6-1.1-.7-1.3c-.2-.3-2.2,0-1.9-1.5s2-.2,2.8-.2.9,0,1.1-.4c-.8-.6-1.6-.3-2.5-.7-1.5-.6-2-2.5-.6-3.5s1-.4,1.1-.4c.1-.2-.2-1.3.8-1.4s.9,1.2,1.1,1.4,1.1.2,1.5.5.5,1.4-.2,1.6-2.4-.9-3.4,0Z"/>
  <path d="M29.5,47.1h6.4c1,.1,1.1,1.6.1,1.8-1.9.3-4.6-.2-6.6,0-.9-.3-.9-1.5,0-1.8Z"/>
  <path d="M29.5,50.1h6.4c1,.1,1.1,1.6.1,1.8-1.9.3-4.6-.2-6.6,0-.9-.3-.9-1.5,0-1.8Z"/>
  <path d="M29.5,53.1h6.4c1,.1,1.1,1.6.1,1.8-1.9.3-4.6-.2-6.6,0-.9-.3-.9-1.5,0-1.8Z"/>
  <path d="M21.7,30c.8-.1,1.1,1.3,2.4,1.4s1.9-1.4,2.7-1.4,1.1.9.8,1.5c-1.2,2.2-5.1,2.3-6.4,0s-.3-1.4.5-1.6Z"/>
  <path d="M26.2,28.5c0,0-.1-.3-.3-.4-.8-.6-1.7-1.1-2.6-.6s-1.1,1.8-2.1.9,1.2-2.8,2.1-2.9,3.8.6,4.3,1.8-.6,1.8-1.4,1.1Z"/>
  <path d="M49.2,25.6c.1,0,1.3,2.2,1.4,2.4s.1.5,0,.7l-3,4.4c-.4.4-1,.4-1.4,0-1-1-1.9-3.1-3-4.2-.1-.2,0-.5,0-.7s1.1-2.2,1.3-2.4.4-.3.6-.4c.6-.2,3.7-.1,4.2.2ZM45.8,27.1l-.7,1.3,1.8,2.5,1.8-2.6-.7-1.2h-2.1Z"/>
  <path d="M71.5,28.2c.6.3,1.3,1.4,1.4,2s.1,2.9,0,3.6-.6.7-1.1.8c-1.2.1-3.9.1-5,0s-.9-.2-1-.9,0-2.5,0-3.2.8-1.8,1.5-2.4c-1.5-2.4,1.6-5,3.7-3.2s.9,2.2.6,3.3ZM70,26.8c0-.4-.3-.6-.6-.6s-.6.3-.6.6.3.6.6.6.6-.3.6-.6ZM67.5,30.7c-.1.6,0,1.5,0,2.1h3.6v-2.2c0-.1-.4-.8-.6-.9-1-.9-2.8-.3-3,1Z"/>
  <path d="M35.7,24.3c-.4.3-.8.3-1.2,0s-1.8-1.8-2-2.1c-.3-.6-.1-1.1.5-1.3.9-.3,1.3.9,2,1.2l2.2-2.6c.8-.7,1.8.1,1.4,1.1l-3,3.7Z"/>
  <path d="M61.1,36.9c0,1.7-1.4,3-3,3s-3-1.4-3-3,1.4-3,3-3,3,1.4,3,3ZM59.3,36.9c0-.7-.6-1.2-1.2-1.2s-1.2.6-1.2,1.2.6,1.2,1.2,1.2,1.2-.6,1.2-1.2Z"/>
  <path d="M56.6,18.8c.7-.1.9.1,1.4.2s.9-.4,1.8,0c1.4.4,1.9,1.8,1.5,3.2s-2,3-3.1,3.1-2.7-1.8-3.1-2.7c-.7-1.5-.3-3.4,1.5-3.7ZM56.8,20.5c-.9.3.6,2.5,1.2,2.6s2.6-2.4,1.1-2.6c-.3,0-.5.5-1.1.5s-.6-.6-1.2-.5Z"/>
  <path d="M33.1,33.6c.6-.1,4-.1,4.8,0s1,.4,1,1,0,4.3,0,4.8-.4.6-.8.6c-1.1.1-3.6.1-4.7,0s-.8-.2-.9-.8c-.1-1-.1-4,0-4.9s.3-.7.7-.7ZM37.1,38.3v-2.7l-.2-.2h-2.7v2.9h2.9Z"/>
</svg>