<?xml version="1.0" encoding="UTF-8"?>
<svg id="Layer_1" xmlns="http://www.w3.org/2000/svg" version="1.1" viewBox="0 0 93.7 72">
  <!-- Generator: Adobe Illustrator 29.5.1, SVG Export Plug-In . SVG Version: 2.1.0 Build 141)  -->
  <path d="M50,16.1c.4.2,3.7-.2,4.1-.5s.2-.8.4-1.2c2.6-4.7,9-1.6,7.4,3.3-.4,1.2-2,1.8-2.1,2.5l1.3,6.9,3.4.5.5-.2,2.1-5.2c-.6-1-1.4-1.4-1.5-2.7-.7-5,5.7-6.5,7.5-2.5s-1.1,6-4.3,5.9l-2.1,5.3v.3c10.7,6,4.5,22.4-7.5,19.5s-2.5-1.2-3.1-.8-1.9,2.5-1.9,2.7.8,1.3.9,2c.7,5.5-7.2,6.3-8.2.9l-5-.8c-.4,1.8-1.4,3.3-2.5,4.7,0,.2,0,.3,0,.5s2.4,2.8,2.6,2.9c.3.1.7-.3,1-.3,1.7-.2,3.5.4,4.3,2.1,2.3,5-4.5,8.2-7,4s-.6-2.8,0-4.6l-2.5-3c-.4-.3-1.8.7-2.4,1-13,4.9-20.6-13.9-8-19.4l-2.9-9.2c-1.8-.3-3.7-1.1-4.2-3.1-.9-4.4,3.9-6.7,7.1-3.7l2.3-1.1c-1.1-3.2-.6-6.4.8-9.4l-2-1.5c-1.8.8-2.9,1.3-4.8.3-2.9-1.7-2.6-6.1.6-7.2s6.2,2.1,5.3,5.4l2,1.5c1.2-.7,2.1-1.7,3.3-2.3,6.1-3,13.2.4,15,6.8ZM27.9,8.4c0-1.2-.9-2.1-2.1-2.1s-2.1.9-2.1,2.1.9,2.1,2.1,2.1,2.1-.9,2.1-2.1ZM45.9,24.5c4.6-4.2,2.6-12-3.2-14-8.6-3-15.5,7.4-9.2,14,0-2.6,1.1-4.7,3.3-6-3.4-4.4,2.9-9.4,6.1-5s.7,3.4-.2,5.1c2.2,1.1,3.4,3.5,3.2,5.9ZM41.7,15.7c0-1.1-.9-2-2-2s-2,.9-2,2,.9,2,2,2,2-.9,2-2ZM60.2,16.1c0-1.2-1-2.1-2.1-2.1s-2.1,1-2.1,2.1,1,2.1,2.1,2.1,2.1-1,2.1-2.1ZM71.5,18.6c0-1.2-.9-2.1-2.1-2.1s-2.1.9-2.1,2.1.9,2.1,2.1,2.1,2.1-.9,2.1-2.1ZM59.1,27.5l-1.2-7.3c-1.7-.4-2.7-1.3-3.6-2.6l-4,.6c.1,1.8-.2,3.2-.9,4.9s-1.2,1.4-.7,2l5.6,4.9c1.5-1,3-2.2,4.9-2.5ZM38.5,19.8c-2.6.5-3.6,4.1-3,6.3,1.6,1.1,3.7,1.3,5.6,1.1s2.8-.7,2.9-1.4c.7-3.6-1.7-6.8-5.5-6ZM26.4,26.3c0-1.2-1-2.1-2.1-2.1s-2.1,1-2.1,2.1,1,2.1,2.1,2.1,2.1-1,2.1-2.1ZM36.1,28.4c-2.3-.5-3.9-2.4-5.4-4.1l-2.3.9c0,1.2,0,2.2-.7,3.3s-1.2.8-1.1,1.6l2.8,8.8h4s2.8-10.4,2.8-10.4ZM51.3,40.7c-.5-3.4-.1-6.2,1.6-9.2l-6-5.1c-2.6,2.4-5.6,3-9,2.7l-2.8,10.4c2.5.6,4.6,2.7,5.7,5l10.4-3.9ZM67.7,43.7c7.1-7-1.6-18.4-10.4-13.5-4.9,2.7-5.6,8.9-2.3,13.2h.5c-.1-2.6,1.3-4.7,3.2-6.1-2-2.9-.4-6.7,3.3-6.5s4.6,4,2.6,6.5c2.2,1.4,3.5,3.6,3.2,6.3ZM63.6,34.8c0-1.1-.9-2-2-2s-2,.9-2,2,.9,2,2,2,2-.9,2-2ZM64.7,39.9c-1.5-1.5-3.9-1.6-5.6-.4s-1.7,3.6-1.5,5.8c2.5,1.5,5.7,1.3,8.3,0,.1-1.8.2-3.9-1.2-5.3ZM37.7,55.3c5.3-4.9,1.7-14-5.4-14.6-8-.6-12.5,8.7-7.1,14.6.1-2.4,1-5,3.3-6.1-1.4-2.2-1.3-5,1.2-6.3,3.9-1.9,7.3,2.6,4.8,6.1,2.1,1.6,3.4,3.5,3.1,6.3ZM42,50l5.1.7c1-1.2,2-2.3,3.7-2.4s1.4.4,1.7.3,2.1-2.6,2-3.1c-1-.7-1.8-3-3-2.9l-9.5,3.7c-.4.4.3,3,0,3.7ZM33.5,46.4c0-1.1-.9-2-2-2s-2,.9-2,2,.9,2,2,2,2-.9,2-2ZM30.8,50.3c-3,.5-4,3.9-3.5,6.6,2.1,1.1,4.1,1.4,6.5.8s2.3-1,2-3.4-2.5-4.4-5-4ZM53.1,52.3c0-1.2-.9-2.1-2.1-2.1s-2.1.9-2.1,2.1.9,2.1,2.1,2.1,2.1-.9,2.1-2.1ZM45.9,63.6c0-1.2-.9-2.1-2.1-2.1s-2.1.9-2.1,2.1.9,2.1,2.1,2.1,2.1-.9,2.1-2.1Z"/>
</svg>